<svg width="25" height="24" viewBox="0 0 25 24" fill="none" xmlns="http://www.w3.org/2000/svg">
<path d="M23.4597 11.0789L13.5602 1.4178C12.9744 0.846126 12.0246 0.846126 11.4389 1.4178C10.8531 1.98948 10.8531 2.91635 11.4389 3.48803L21.3383 13.1491C21.9241 13.7208 22.8739 13.7208 23.4597 13.1491C24.0455 12.5774 24.0455 11.6505 23.4597 11.0789Z" fill="white"/>
<path d="M21.3383 11.0789L11.4388 20.7399C10.853 21.3116 10.853 22.2385 11.4388 22.8101C12.0246 23.3818 12.9744 23.3818 13.5602 22.8101L23.4596 13.1491C24.0454 12.5774 24.0454 11.6505 23.4596 11.0789C22.8739 10.5072 21.9241 10.5072 21.3383 11.0789Z" fill="white"/>
</svg>
