<svg width="62" height="66" viewBox="0 0 62 66" fill="none" xmlns="http://www.w3.org/2000/svg">
<path d="M13.2687 39.7019L3.80701 57.6493L5.74404 57.4348L14.6842 40.5599C14.1627 40.2739 13.7157 39.9879 13.2687 39.7019Z" fill="#BD5555"/>
<path d="M16.3158 63.5679L17.2356 65.2632L27.7368 45.3615C27.2003 45.2878 26.5871 45.2141 26.0505 45.1404L16.3158 63.5679Z" fill="#BD5555"/>
<path d="M14.9658 40.7894L5.98254 58.0574L12.816 57.1565L16.1175 63.0877L25.5615 44.7686C21.7993 44.0929 18.1906 42.6664 14.9658 40.7894Z" fill="#BD5555"/>
<path d="M37.5264 44.8437L46.7465 63.0877L49.9438 57.1565L56.5615 58.0574L47.9362 40.7894C44.7389 42.6664 41.2442 44.0929 37.5264 44.8437Z" fill="#BD5555"/>
<path d="M48.4034 40.4913L57.3436 57.4337L59.2806 57.649L49.7445 39.7017C49.2975 39.9888 48.8505 40.276 48.4034 40.4913Z" fill="#BD5555"/>
<path d="M35.3508 45.4341L45.8521 65.2632L46.7719 63.574L37.0372 45.1404C36.5006 45.2873 35.964 45.3607 35.3508 45.4341Z" fill="#BD5555"/>
<circle cx="31" cy="30.9999" r="26.1053" fill="#FFF6F2"/>
<path d="M33.4903 13.7005C33.4903 13.7005 33.3933 13.7296 33.3949 13.7635C33.3965 13.7975 33.3949 14.5313 33.3949 14.5313C33.3949 14.5313 33.3804 14.5475 33.4353 14.5475C33.6423 14.5265 33.8362 14.6477 33.9074 14.8417C33.9284 14.9613 33.9332 15.081 33.9268 15.2022V18.6453H35.3509V12.965H34.5055C34.2323 13.2899 33.8831 13.5421 33.4903 13.7005Z" fill="url(#paint0_linear_527_4997)"/>
<path d="M30.7988 13.7005C30.7988 13.7005 30.7018 13.7296 30.7051 13.7635C30.7083 13.7975 30.7051 14.5313 30.7051 14.5313C30.7051 14.5313 30.6905 14.5475 30.7439 14.5475C30.9508 14.5249 31.1447 14.6461 31.2159 14.8417C31.2369 14.9613 31.2434 15.081 31.2353 15.2022V18.6453H32.6594V12.965H31.814C31.5408 13.2899 31.1916 13.5421 30.7988 13.7005Z" fill="url(#paint1_linear_527_4997)"/>
<path d="M28.109 13.7005C28.109 13.7005 28.0137 13.7296 28.0153 13.7635C28.0169 13.7975 28.0153 14.5313 28.0153 14.5313C28.0153 14.5313 28.0007 14.5475 28.0557 14.5475C28.2626 14.5265 28.4566 14.6477 28.5277 14.8417C28.5471 14.9613 28.5536 15.081 28.5471 15.2022V18.6453H29.9712V12.965H29.1258C28.8526 13.2899 28.5035 13.5421 28.109 13.7005Z" fill="url(#paint2_linear_527_4997)"/>
<path d="M25.4192 13.7003C25.4192 13.7003 25.3222 13.7311 25.3238 13.7634C25.3254 13.7957 25.3238 14.5312 25.3238 14.5312C25.3238 14.5312 25.3093 14.5474 25.3659 14.5474C25.5711 14.5264 25.7651 14.6476 25.8362 14.8416C25.8573 14.9612 25.8637 15.0808 25.8556 15.2021V18.6452H27.2814V12.9648H26.436C26.1628 13.2898 25.8136 13.5419 25.4192 13.7003Z" fill="url(#paint3_linear_527_4997)"/>
<path d="M21.9053 33.6929C21.8232 34.4927 21.813 35.2515 21.8745 35.9692L21.7515 36.1128C19.8716 36.0376 18.3335 36 17.1372 36C15.8862 36 14.4028 36.0342 12.687 36.1025L12.5537 35.9795V35.0464L14.6455 32.9136C16.2109 31.3208 17.2329 30.1108 17.7114 29.2837C17.9917 28.7983 18.1899 28.3574 18.3062 27.9609C18.4224 27.5576 18.4805 27.1304 18.4805 26.6792C18.4805 25.0454 17.7319 24.2285 16.2349 24.2285C15.4009 24.2285 14.7378 24.5464 14.2456 25.1821C14.1704 25.4761 14.0371 25.9888 13.8457 26.7202L13.7329 26.8228H13.1484L13.0459 26.7202L13.4253 23.2954C14.2866 22.4341 15.4863 22.0034 17.0244 22.0034C18.3984 22.0034 19.458 22.3623 20.2031 23.0801C20.8936 23.7363 21.2388 24.6079 21.2388 25.6948C21.2388 26.1392 21.1875 26.5493 21.085 26.9253C20.873 27.6909 20.439 28.4634 19.7827 29.2427C19.2358 29.8921 18.4087 30.7466 17.3013 31.8062C16.8979 32.2026 16.2861 32.7871 15.4658 33.5596L15.4863 33.6929H17.3013C17.8276 33.6929 18.3267 33.686 18.7983 33.6724L20.5723 33.6211C21.0234 33.6074 21.4165 33.5869 21.7515 33.5596L21.9053 33.6929ZM31.2835 28.5762C31.2835 31.2559 30.9485 33.1733 30.2786 34.3286C29.4583 35.7437 28.2176 36.4512 26.5564 36.4512C24.95 36.4512 23.7776 35.8291 23.0394 34.585C22.431 33.5596 22.1268 31.8574 22.1268 29.4785C22.1268 27.6055 22.3113 26.1357 22.6805 25.0693C23.0154 24.085 23.5555 23.3193 24.3006 22.7725C25.0115 22.2529 25.8592 21.9932 26.8436 21.9932C28.3816 21.9932 29.4891 22.458 30.1658 23.3877C30.9109 24.4062 31.2835 26.1357 31.2835 28.5762ZM28.7508 30.2578C28.7508 27.585 28.5594 25.6675 28.1766 24.5054C27.8689 23.5757 27.3392 23.1108 26.5872 23.1108C25.8899 23.1108 25.3943 23.4663 25.1004 24.1772C24.7859 24.9292 24.6287 26.2144 24.6287 28.0327C24.6287 30.3159 24.7654 32.0591 25.0389 33.2622C25.1687 33.8364 25.3055 34.25 25.449 34.5029C25.784 35.0908 26.242 35.3848 26.823 35.3848C27.8074 35.3848 28.3987 34.626 28.597 33.1084C28.6995 32.3154 28.7508 31.3652 28.7508 30.2578ZM40.8053 33.6929C40.7232 34.4927 40.713 35.2515 40.7745 35.9692L40.6515 36.1128C38.7716 36.0376 37.2335 36 36.0372 36C34.7862 36 33.3028 36.0342 31.587 36.1025L31.4537 35.9795V35.0464L33.5455 32.9136C35.1109 31.3208 36.1329 30.1108 36.6114 29.2837C36.8917 28.7983 37.0899 28.3574 37.2062 27.9609C37.3224 27.5576 37.3805 27.1304 37.3805 26.6792C37.3805 25.0454 36.6319 24.2285 35.1349 24.2285C34.3009 24.2285 33.6378 24.5464 33.1456 25.1821C33.0704 25.4761 32.9371 25.9888 32.7457 26.7202L32.6329 26.8228H32.0484L31.9459 26.7202L32.3253 23.2954C33.1866 22.4341 34.3863 22.0034 35.9244 22.0034C37.2984 22.0034 38.358 22.3623 39.1031 23.0801C39.7936 23.7363 40.1388 24.6079 40.1388 25.6948C40.1388 26.1392 40.0875 26.5493 39.985 26.9253C39.773 27.6909 39.339 28.4634 38.6827 29.2427C38.1358 29.8921 37.3087 30.7466 36.2013 31.8062C35.7979 32.2026 35.1861 32.7871 34.3658 33.5596L34.3863 33.6929H36.2013C36.7276 33.6929 37.2267 33.686 37.6983 33.6724L39.4723 33.6211C39.9234 33.6074 40.3165 33.5869 40.6515 33.5596L40.8053 33.6929ZM49.9271 35.9692L49.8144 36.0923C48.8573 36.0308 47.6884 36 46.3075 36C44.9608 36 43.5424 36.0308 42.0521 36.0923L41.9394 35.9795V35.354L42.0624 35.2515C42.411 35.2104 42.7494 35.1763 43.0775 35.1489C43.6654 35.1011 44.0414 35.043 44.2055 34.9746C44.3217 34.9199 44.4208 34.7935 44.5028 34.5952C44.6327 34.2739 44.6977 32.9751 44.6977 30.6987V28.1455C44.6977 27.3799 44.684 26.4092 44.6566 25.2334L44.6361 24.4644C44.6361 24.1226 44.5644 23.9517 44.4208 23.9517C44.3593 23.9517 44.1576 24.0303 43.8158 24.1875C42.8793 24.6182 42.0761 24.9976 41.4062 25.3257L41.2831 25.2539C41.2421 24.8643 41.1703 24.4302 41.0678 23.9517L41.078 23.8696C42.9647 23.3364 45.0736 22.6221 47.4047 21.7266L47.62 21.8804C47.5927 22.2837 47.5551 22.8818 47.5072 23.6748C47.4867 23.9756 47.4662 24.7822 47.4457 26.0947L47.4149 30.1245C47.4149 33.0093 47.4628 34.5576 47.5585 34.7695C47.6269 34.9268 47.7294 35.0225 47.8661 35.0566C48.1122 35.125 48.7548 35.1865 49.7938 35.2412L49.9271 35.3438V35.9692Z" fill="#BD5555"/>
<path d="M62 30.9662C62 29.4787 61.1887 28.0589 60.3773 26.7067C59.7688 25.6925 59.1603 24.6107 58.8899 23.5289C58.687 22.8528 58.6194 22.1767 58.6194 21.5005C58.6194 21.1625 58.6194 20.7568 58.6194 20.4188C58.6194 20.2159 58.6194 20.0807 58.6194 19.8779C58.6194 19.4722 58.6194 18.9989 58.6194 18.5932C58.5518 17.4438 58.4166 16.362 57.9433 15.4831C57.2672 14.2661 55.9149 13.4547 54.4275 12.6434C53.3457 12.0349 52.2639 11.4264 51.4526 10.5474C50.6412 9.66848 49.9651 8.65431 49.3566 7.57252C48.5453 6.15267 47.7339 4.80044 46.5169 4.05671C45.2999 3.38059 43.7448 3.38059 42.1221 3.38059C40.9051 3.38059 39.6205 3.38059 38.4711 3.04253C37.3893 2.77208 36.3075 2.16358 35.2934 1.55507C33.8735 0.811341 32.4537 0 30.9662 0C29.4787 0 28.1265 0.811341 26.7067 1.62268C25.6925 2.23119 24.6107 2.83969 23.5289 3.11014C22.3795 3.4482 21.0949 3.4482 19.8779 3.4482C18.2552 3.4482 16.7001 3.4482 15.4831 4.12432C14.2661 4.80044 13.4547 6.15267 12.6434 7.64013C12.0349 8.72192 11.4264 9.80371 10.5474 10.615C9.7361 11.4264 8.65431 12.1025 7.57252 12.711C6.15267 13.5224 4.80044 14.3337 4.05671 15.5507C3.51581 16.4297 3.38059 17.5114 3.38059 18.6609C3.38059 19.0665 3.38059 19.4722 3.38059 19.9455C3.38059 20.1483 3.38059 20.2835 3.38059 20.4864C3.38059 20.8244 3.38059 21.2301 3.38059 21.5682C3.31298 22.2443 3.24537 22.988 3.11014 23.5965C2.83969 24.6783 2.23119 25.7601 1.62268 26.7743C0.811341 28.1941 0 29.5463 0 30.9662C0 32.4537 0.811341 33.8735 1.62268 35.2257C2.23119 36.2399 2.83969 37.3217 3.11014 38.4035C3.31298 39.0796 3.38059 39.7557 3.38059 40.4318C3.38059 40.7699 3.38059 41.1756 3.38059 41.5136C3.38059 41.7165 3.38059 41.8517 3.38059 42.0545C3.38059 42.4602 3.38059 42.9335 3.38059 43.3391C3.4482 44.4885 3.58342 45.5703 4.05671 46.4493C4.73282 47.6663 6.08506 48.4776 7.57252 49.289C8.65431 49.8975 9.7361 50.506 10.5474 51.385C11.3588 52.1963 12.0349 53.2781 12.6434 54.3599C13.4547 55.7797 14.2661 57.132 15.4831 57.8757C16.7001 58.5518 18.2552 58.5518 19.8779 58.5518C21.0949 58.5518 22.3795 58.5518 23.5289 58.8899C24.6107 59.1603 25.6925 59.7688 26.7067 60.3773C28.1265 61.1887 29.5463 62 30.9662 62C32.4537 62 33.8735 61.1887 35.2257 60.3773C36.2399 59.7688 37.3217 59.1603 38.4035 58.8899C39.5529 58.5518 40.8375 58.5518 42.0545 58.5518C43.6772 58.5518 45.2323 58.5518 46.4493 57.8757C47.6663 57.1996 48.4776 55.8473 49.289 54.3599C49.8975 53.2781 50.506 52.1963 51.385 51.385C52.1963 50.5736 53.2781 49.8975 54.3599 49.289C55.7797 48.4776 57.132 47.6663 57.8757 46.4493C58.4166 45.5703 58.5518 44.4885 58.5518 43.3391C58.5518 42.9335 58.5518 42.4602 58.5518 42.0545C58.5518 41.8517 58.5518 41.7165 58.5518 41.5136C58.5518 41.1756 58.5518 40.7699 58.5518 40.4318C58.6194 39.7557 58.687 39.012 58.8222 38.4035C59.0927 37.3217 59.7012 36.2399 60.3097 35.2257C61.1887 33.8735 62 32.4537 62 30.9662ZM54.7655 41.5812C54.4951 42.1898 54.2246 42.7983 53.8866 43.4068C49.4918 51.5202 40.8375 57.0643 30.9662 57.0643C21.0949 57.0643 12.5082 51.5202 8.0458 43.4068C7.70774 42.7983 7.4373 42.1898 7.16685 41.5812C7.03163 41.2432 6.82879 40.8375 6.69357 40.4995C5.54417 37.5245 4.86805 34.3468 4.86805 30.9662C4.86805 27.5856 5.54417 24.4079 6.69357 21.4329C6.82879 21.0949 6.96401 20.6892 7.16685 20.3511C7.4373 19.7426 7.70774 19.1341 8.0458 18.5256C12.4406 10.4122 21.0949 4.86805 30.9662 4.86805C40.8375 4.86805 49.4242 10.4122 53.8866 18.5256C54.2246 19.1341 54.4951 19.7426 54.7655 20.3511C54.9008 20.6892 55.1036 21.0949 55.2388 21.4329C56.3882 24.4079 57.0643 27.5856 57.0643 30.9662C57.0643 34.3468 56.3882 37.5245 55.2388 40.4995C55.1036 40.9051 54.9684 41.2432 54.7655 41.5812Z" fill="url(#paint4_linear_527_4997)"/>
<path d="M53.5485 21.5005C53.4133 21.1625 53.2105 20.7568 53.0752 20.4188C52.8048 19.8102 52.4667 19.2017 52.1287 18.5932C47.8015 11.3588 39.9586 6.49072 30.9662 6.49072C21.9738 6.49072 14.1309 11.3588 9.87131 18.5932C9.53325 19.2017 9.19519 19.8102 8.92475 20.4188C8.72191 20.7568 8.58669 21.1625 8.45146 21.5005C7.23445 24.4078 6.49072 27.6532 6.49072 31.0338C6.49072 34.4144 7.16684 37.6598 8.45146 40.5671C8.58669 40.9051 8.78952 41.3108 8.92475 41.6488C9.19519 42.2574 9.53325 42.8659 9.87131 43.4744C14.1985 50.6412 22.0414 55.5093 30.9662 55.5093C39.9586 55.5093 47.8015 50.6412 52.0611 43.4068C52.3991 42.7983 52.7372 42.1897 53.0076 41.5812C53.2105 41.2432 53.3457 40.8375 53.4809 40.4995C54.6979 37.5921 55.4417 34.3468 55.4417 30.9662C55.5093 27.6532 54.7655 24.4078 53.5485 21.5005ZM51.8582 40.4995C51.723 40.8375 51.5202 41.2432 51.3173 41.5812C50.9793 42.1897 50.6412 42.7983 50.2356 43.4068C46.1788 49.7623 39.0796 53.9542 30.9662 53.9542C22.8528 53.9542 15.8211 49.7623 11.6968 43.4068C11.2912 42.7983 10.9531 42.1897 10.615 41.5812C10.4122 41.2432 10.277 40.8375 10.0741 40.4995C8.72191 37.5921 7.97818 34.3468 7.97818 30.9662C7.97818 27.5856 8.72191 24.3402 10.0741 21.4329C10.2094 21.0949 10.4122 20.6892 10.615 20.3511C10.9531 19.7426 11.2912 19.1341 11.6968 18.5256C15.7535 12.1701 22.8528 7.97818 30.9662 7.97818C39.0796 7.97818 46.1112 12.1701 50.2356 18.5256C50.6412 19.1341 50.9793 19.7426 51.3173 20.3511C51.5202 20.6892 51.6554 21.0949 51.8582 21.4329C53.2105 24.3402 53.9542 27.5856 53.9542 30.9662C53.8866 34.4144 53.1429 37.5921 51.8582 40.4995Z" fill="#E59999"/>
<path d="M44.5966 42.7493H48.4036" stroke="url(#paint5_linear_527_4997)" stroke-width="0.431337"/>
<line x1="13.5966" y1="42.7493" x2="17.4036" y2="42.7493" stroke="url(#paint6_linear_527_4997)" stroke-width="0.431337"/>
<path d="M30.6169 40.4004H27.7029C27.529 40.4004 27.3879 40.541 27.3879 40.7144C27.3879 40.8879 27.529 41.0285 27.7029 41.0285H30.6169C30.7909 41.0285 30.9319 40.8879 30.9319 40.7144C30.9319 40.541 30.7909 40.4004 30.6169 40.4004Z" fill="#BD5555"/>
<path d="M43.0245 44.7233V44.1707C43.0245 44.1486 43.0079 44.132 42.9858 44.132H40.6299V43.7176H42.4664C42.4866 43.7176 42.505 43.701 42.505 43.6789V43.1263C42.505 43.1042 42.4885 43.0876 42.4664 43.0876H40.6299V42.9016H42.715C42.7371 42.9016 42.7537 42.885 42.7537 42.8629V42.3103C42.7537 42.2882 42.7371 42.2716 42.715 42.2716H41.6283L41.9082 41.8517H42.8495C42.8716 41.8517 42.8882 41.8351 42.8882 41.813V41.2604C42.8882 41.2401 42.8716 41.2217 42.8495 41.2217H42.3816L42.8476 40.5254C42.8587 40.507 42.8532 40.4831 42.8347 40.472C42.8292 40.4683 42.8219 40.4665 42.8145 40.4665H41.9064C41.8935 40.4665 41.8824 40.472 41.8751 40.4831L41.4275 41.1517V40.8201C41.4275 40.4831 41.1549 40.2104 40.8178 40.2104H40.6999C40.4439 40.2104 40.2154 40.3707 40.1289 40.6102C40.1676 40.5733 40.2191 40.5512 40.2744 40.5512H40.2781C40.3941 40.5512 40.4881 40.6452 40.4881 40.7612V41.2199H39.9465V40.4241C39.9465 40.402 39.9299 40.3854 39.9078 40.3854H39.0458C39.0237 40.3854 39.0071 40.402 39.0071 40.4241V41.113L38.5853 40.4812C38.5779 40.4702 38.5669 40.4646 38.554 40.4646H37.6477C37.6256 40.4646 37.609 40.4831 37.609 40.5033C37.609 40.5107 37.6109 40.5181 37.6146 40.5236L38.0806 41.2199H37.469C37.4488 41.2199 37.4304 41.2364 37.4304 41.2585V41.8111C37.4304 41.8332 37.4469 41.8498 37.469 41.8498H38.4232L38.705 42.2698H37.6054C37.5851 42.2698 37.5667 42.2864 37.5667 42.3085V42.8611C37.5667 42.8813 37.5832 42.8997 37.6054 42.8997H39.6905V43.0858H37.854C37.8338 43.0858 37.8153 43.1024 37.8153 43.1245V43.6771C37.8153 43.6992 37.8319 43.7157 37.854 43.7157H39.6905V44.1284H37.3346C37.3143 44.1284 37.2959 44.1449 37.2959 44.167V44.7196C37.2959 44.7417 37.3125 44.7583 37.3346 44.7583H39.6905V46.0219C39.6905 46.044 39.7071 46.0606 39.7292 46.0606H40.5912C40.6115 46.0606 40.6299 46.044 40.6299 46.0219V44.7583H42.9858C43.0061 44.7583 43.0245 44.7417 43.0245 44.7196V44.7233ZM39.4252 41.8535H40.9099L40.6299 42.2735H39.7071L39.4252 41.8535Z" fill="#BD5555"/>
<path d="M28.8431 43.1501C28.6165 43.1501 28.4341 43.3325 28.4341 43.5591V43.6383C28.4341 43.8096 28.541 43.9643 28.7031 44.0232C28.6791 43.9975 28.6644 43.9625 28.6644 43.9256C28.6644 43.8538 28.7141 43.7948 28.7823 43.7838V44.2369H28.3199V43.1888C28.3199 43.1667 28.3034 43.1501 28.2813 43.1501H27.5371C27.515 43.1501 27.4984 43.1667 27.4984 43.1888V45.4913C27.4984 45.8063 27.7545 46.0623 28.0694 46.0623H30.313C30.6279 46.0623 30.884 45.8063 30.884 45.4913V43.723C30.884 43.408 30.6279 43.152 30.313 43.152H28.8412L28.8431 43.1501ZM28.3199 44.8632H28.7823V45.4324H28.3199V44.8632ZM30.0643 45.4324H29.602V44.8632H30.0643V45.4324ZM30.0643 44.2351H29.602V43.7783H30.0643V44.2351Z" fill="#BD5555"/>
<path d="M24.7501 41.9714H22.4311V41.4611H24.437C24.4591 41.4611 24.4757 41.4446 24.4757 41.4225V40.8699C24.4757 40.8478 24.4591 40.8312 24.437 40.8312H22.4311V40.822C22.4311 40.4849 22.1585 40.2123 21.8214 40.2123H21.7053C21.4493 40.2123 21.2209 40.3725 21.1343 40.612C21.173 40.5752 21.2246 40.553 21.278 40.553H21.2817C21.3977 40.553 21.4917 40.647 21.4917 40.763V40.8293H19.4047C19.3826 40.8293 19.366 40.8459 19.366 40.868V41.4206C19.366 41.4427 19.3826 41.4593 19.4047 41.4593H21.4917V41.9695H19.0915C19.0694 41.9695 19.0529 41.9861 19.0529 42.0082V42.5608C19.0529 42.5829 19.0694 42.5995 19.0915 42.5995H20.4104L20.8967 43.3271H19.4028C19.3807 43.3271 19.3642 43.3437 19.3642 43.3658V43.9165C19.3642 43.9386 19.3807 43.9552 19.4028 43.9552H21.4898V44.447H19.0897C19.0676 44.447 19.051 44.4636 19.051 44.4857V45.0383C19.051 45.0604 19.0676 45.077 19.0897 45.077H21.4898V46.0256C21.4898 46.0477 21.5064 46.0643 21.5285 46.0643H22.3905C22.4127 46.0643 22.4292 46.0477 22.4292 46.0256V45.0751H24.7464C24.7685 45.0751 24.7851 45.0585 24.7851 45.0364V44.4838C24.7851 44.4617 24.7685 44.4452 24.7464 44.4452H22.4274V43.9552H24.4333C24.4554 43.9552 24.472 43.9386 24.472 43.9165V43.3639C24.472 43.3418 24.4554 43.3252 24.4333 43.3252H22.9818L23.4681 42.5977H24.7464C24.7685 42.5977 24.7851 42.5811 24.7851 42.559V42.0064C24.7851 41.9843 24.7667 41.9677 24.7464 41.9677L24.7501 41.9714ZM22.2579 43.3289H21.6243L21.138 42.6013H22.7442L22.2579 43.3289Z" fill="#BD5555"/>
<path d="M33.6948 40.3966C33.4682 40.3966 33.2859 40.5808 33.2859 40.8074V40.8866C33.2859 41.0579 33.3927 41.2126 33.5548 41.2715C33.5309 41.2458 33.5161 41.2108 33.5161 41.1739C33.5161 41.0929 33.5788 41.0302 33.658 41.0302H34.8755C34.94 41.0284 35.0008 41.0616 35.0376 41.1168L36.0304 42.6733C36.0378 42.6844 36.0489 42.6917 36.0636 42.6917H37.097C37.1191 42.6917 37.1356 42.6733 37.1338 42.653C37.1338 42.6457 37.132 42.6401 37.1283 42.6346L35.872 40.6655C35.767 40.5016 35.5847 40.4021 35.3894 40.4021H33.6948V40.3966Z" fill="#BD5555"/>
<path d="M34.6508 43.8227H36.6328C36.6549 43.8227 36.6715 43.8061 36.6715 43.784V43.2314C36.6715 43.2093 36.6549 43.1927 36.6328 43.1927H34.6508V42.4117C34.6508 42.0746 34.3782 41.802 34.0412 41.802H33.9233C33.6617 41.8481 33.4315 41.9991 33.2841 42.2201C33.3209 42.1851 33.4388 42.1925 33.4959 42.1925H33.4996C33.6157 42.1925 33.7096 42.2367 33.7096 42.3528V45.4307H32.6376V43.073C32.6376 43.0509 32.621 43.0343 32.5989 43.0343H31.7368C31.7166 43.0343 31.6981 43.0509 31.6981 43.073V45.4307H31.28C31.2579 45.4307 31.2413 45.4473 31.2413 45.4694V46.022C31.2413 46.0441 31.2579 46.0607 31.28 46.0607H36.9257C36.9478 46.0607 36.9644 46.0441 36.9644 46.022V45.4694C36.9644 45.4473 36.9478 45.4307 36.9257 45.4307H34.6472V43.8208L34.6508 43.8227Z" fill="#BD5555"/>
<path d="M27.6771 41.2143V42.2532C27.6771 42.5682 27.9332 42.8242 28.2481 42.8242H30.0607C30.3756 42.8242 30.6317 42.5682 30.6317 42.2532V41.7467C30.6317 41.4317 30.3756 41.1757 30.0607 41.1757H29.0218C28.7952 41.1757 28.6129 41.358 28.6129 41.5846V41.6638C28.6129 41.8351 28.7197 41.9898 28.8818 42.0488C28.856 42.023 28.8431 41.988 28.8431 41.9511V41.9475C28.8431 41.8701 28.9057 41.8075 28.9849 41.8075H29.8138V42.198H28.5005V41.2143C28.5005 41.1922 28.4839 41.1757 28.4618 41.1757H27.7176C27.6955 41.1757 27.679 41.1922 27.679 41.2143H27.6771Z" fill="#BD5555"/>
<path d="M27.2793 41.5569V41.5514C27.2793 41.2604 27.0435 41.0246 26.7525 41.0246H26.6714V40.822C26.6714 40.4849 26.3988 40.2123 26.0636 40.2123H25.9457C25.6896 40.2123 25.4612 40.3725 25.3747 40.612C25.4133 40.5752 25.4649 40.553 25.5202 40.553H25.5239C25.6399 40.553 25.7338 40.647 25.732 40.763V41.0228H25.137C25.1149 41.0228 25.0984 41.0393 25.0984 41.0614V41.614C25.0984 41.6361 25.1149 41.6527 25.137 41.6527H26.2975C26.3196 41.6527 26.3362 41.6711 26.3362 41.6914C26.3362 41.6969 26.3362 41.7006 26.3325 41.7061C26.1225 42.1758 25.8646 42.6216 25.5625 43.0379H25.5533V43.0489C25.3876 43.2755 25.2089 43.4892 25.0173 43.6918C25.0026 43.7084 25.0044 43.7323 25.021 43.7471C25.0284 43.7526 25.0357 43.7563 25.0449 43.7563H25.5552V46.0219C25.5552 46.044 25.5718 46.0606 25.5939 46.0606H26.4559C26.478 46.0606 26.4946 46.044 26.4946 46.0219V43.1171C26.793 42.6861 27.0435 42.2256 27.2443 41.7393C27.2682 41.6803 27.2811 41.6159 27.2811 41.5532L27.2793 41.5569Z" fill="#BD5555"/>
<path d="M33.1386 40.391H32.2158C32.1992 40.391 32.1845 40.4002 32.1789 40.4168C31.9266 41.1812 31.5932 41.9162 31.1843 42.6087C31.1732 42.6272 31.1806 42.6511 31.199 42.6622C31.2045 42.6658 31.2101 42.6677 31.2174 42.6677H32.2379C32.2508 42.6677 32.2637 42.6603 32.271 42.6493C32.6726 41.9585 32.9765 41.2144 33.1755 40.4407C33.181 40.4205 33.1681 40.4002 33.146 40.3947C33.1441 40.3947 33.1405 40.3947 33.1386 40.3947H33.1405L33.1386 40.391Z" fill="#BD5555"/>
<path d="M27.2149 43.0894H26.6346C26.6144 43.0894 26.5978 43.1059 26.5959 43.1262C26.5959 43.5167 26.607 44.3456 26.6807 45.0419C26.6825 45.0621 26.6991 45.075 26.7194 45.075H27.3843C27.4046 45.075 27.4212 45.0603 27.423 45.04C27.423 45.0363 27.423 45.0345 27.423 45.0308C27.3125 44.4027 27.2554 43.7654 27.2535 43.128C27.2535 43.1078 27.2351 43.0894 27.2149 43.0894Z" fill="#BD5555"/>
<path d="M42.12 44.8651H41.0921C41.0719 44.8651 41.0535 44.8835 41.0535 44.9038C41.0535 44.9112 41.0553 44.9204 41.0608 44.9259L41.8603 45.9979C41.8676 46.0071 41.8787 46.0127 41.8916 46.0127H43.0723C43.0944 46.0127 43.111 45.9943 43.1091 45.9721C43.1091 45.9629 43.1054 45.9537 43.0999 45.9482C42.7186 45.5448 42.3263 45.088 42.1494 44.878C42.1421 44.8688 42.131 44.8651 42.12 44.8651Z" fill="#BD5555"/>
<path d="M37.2885 46.0127H38.4692C38.4803 46.0127 38.4932 46.0071 38.5006 45.9979L39.3 44.9259C39.3129 44.9093 39.3092 44.8854 39.2908 44.8725C39.2853 44.8688 39.276 44.8651 39.2687 44.8651H38.2408C38.2298 44.8651 38.2187 44.8688 38.2114 44.878C38.0345 45.088 37.644 45.5448 37.2609 45.9482C37.2462 45.9629 37.248 45.9887 37.2627 46.0016C37.2701 46.009 37.2793 46.0127 37.2885 46.0127Z" fill="#BD5555"/>
<defs>
<linearGradient id="paint0_linear_527_4997" x1="34.3406" y1="18.4901" x2="34.3406" y2="12.8098" gradientUnits="userSpaceOnUse">
<stop stop-color="#D01F26"/>
<stop offset="0.2" stop-color="#DC1E25"/>
<stop offset="0.58" stop-color="#ED1B23"/>
<stop offset="0.95" stop-color="#ED1F23"/>
</linearGradient>
<linearGradient id="paint1_linear_527_4997" x1="31.7852" y1="2497.96" x2="31.7852" y2="2497.96" gradientUnits="userSpaceOnUse">
<stop stop-color="#D01F26"/>
<stop offset="0.2" stop-color="#DC1E25"/>
<stop offset="0.58" stop-color="#ED1B23"/>
<stop offset="0.95" stop-color="#ED1F23"/>
</linearGradient>
<linearGradient id="paint2_linear_527_4997" x1="29.0885" y1="2497.96" x2="29.0885" y2="2497.96" gradientUnits="userSpaceOnUse">
<stop stop-color="#D01F26"/>
<stop offset="0.2" stop-color="#DC1E25"/>
<stop offset="0.58" stop-color="#ED1B23"/>
<stop offset="0.95" stop-color="#ED1F23"/>
</linearGradient>
<linearGradient id="paint3_linear_527_4997" x1="26.2609" y1="2497.96" x2="26.2609" y2="2497.96" gradientUnits="userSpaceOnUse">
<stop stop-color="#D01F26"/>
<stop offset="0.2" stop-color="#DC1E25"/>
<stop offset="0.58" stop-color="#ED1B23"/>
<stop offset="0.95" stop-color="#ED1F23"/>
</linearGradient>
<linearGradient id="paint4_linear_527_4997" x1="31" y1="0" x2="31" y2="62" gradientUnits="userSpaceOnUse">
<stop stop-color="#E69999"/>
<stop offset="0.338542" stop-color="#F3C2C2"/>
<stop offset="0.755208" stop-color="#E69999"/>
</linearGradient>
<linearGradient id="paint5_linear_527_4997" x1="46.5001" y1="42.7493" x2="46.5001" y2="43.7493" gradientUnits="userSpaceOnUse">
<stop stop-color="#BD5555"/>
<stop offset="0.380208" stop-color="#BD5555"/>
<stop offset="1" stop-color="#BD5555"/>
</linearGradient>
<linearGradient id="paint6_linear_527_4997" x1="15.5001" y1="42.965" x2="15.5001" y2="43.965" gradientUnits="userSpaceOnUse">
<stop stop-color="#BD5555"/>
<stop offset="0.380208" stop-color="#BD5555"/>
<stop offset="1" stop-color="#BD5555"/>
</linearGradient>
</defs>
</svg>
