<svg width="23" height="23" viewBox="0 0 23 23" fill="none" xmlns="http://www.w3.org/2000/svg">
<path d="M11.0854 4.61883C15.1279 4.61883 18.4187 7.90966 18.4187 11.9522C18.4187 15.9947 15.1279 19.2855 11.0854 19.2855C7.04287 19.2855 3.75203 15.9947 3.75203 11.9522C3.75203 7.90966 7.04287 4.61883 11.0854 4.61883ZM11.0854 2.78549C6.02537 2.78549 1.9187 6.89216 1.9187 11.9522C1.9187 17.0122 6.02537 21.1188 11.0854 21.1188C16.1454 21.1188 20.252 17.0122 20.252 11.9522C20.252 6.89216 16.1454 2.78549 11.0854 2.78549ZM12.002 11.9522V8.28549H10.1687V11.9522H7.4187L11.0854 15.6188L14.752 11.9522H12.002Z" fill="white"/>
</svg>
