<svg width="14" height="13" viewBox="0 0 14 13" fill="none" xmlns="http://www.w3.org/2000/svg">
<path d="M6.76386 12.2559C6.72173 12.2587 6.67983 12.2477 6.64453 12.2246C6.51519 12.1246 6.56253 11.8812 6.61719 11.5999C6.67755 11.3713 6.69495 11.1335 6.66853 10.8986C6.64369 10.7781 6.58075 10.6689 6.48903 10.587C6.3973 10.5051 6.28165 10.4549 6.15919 10.4439C6.07719 10.4346 6.00586 10.4259 5.93986 10.4165C5.19492 10.3147 4.46882 10.1047 3.78453 9.79322C3.46315 9.64611 3.15357 9.47449 2.85853 9.27988C2.57502 9.09269 2.30745 8.88242 2.05853 8.65122C1.81886 8.42824 1.59975 8.18415 1.40386 7.92188C1.21389 7.66761 1.04953 7.39518 0.913193 7.10855C0.640385 6.5396 0.49825 5.91685 0.497193 5.28588C0.497031 4.93165 0.541834 4.57883 0.630526 4.23588C0.719665 3.89573 0.849021 3.56742 1.01586 3.25788C1.1863 2.94173 1.39037 2.6449 1.62453 2.37255C1.86758 2.08994 2.13752 1.83162 2.43053 1.60122C2.73681 1.36066 3.06387 1.14782 3.40786 0.965217C3.76802 0.773969 4.14356 0.613186 4.53053 0.48455C4.9348 0.350237 5.34926 0.248796 5.76986 0.181216C6.65158 0.0400177 7.55014 0.0400177 8.43186 0.181216C8.85246 0.248796 9.26692 0.350237 9.67119 0.48455C10.0579 0.613221 10.4332 0.774003 10.7932 0.965217C11.1372 1.14783 11.4642 1.36067 11.7705 1.60122C12.0638 1.83159 12.3339 2.08992 12.5772 2.37255C12.8113 2.64491 13.0154 2.94174 13.1859 3.25788C13.3525 3.56745 13.4816 3.89576 13.5705 4.23588C13.785 5.06198 13.7414 5.9339 13.4459 6.73455C13.2728 7.20056 13.0274 7.63636 12.7185 8.02588C12.6815 8.07895 12.6407 8.1293 12.5965 8.17655L12.5925 8.18055C12.3745 8.43662 12.1342 8.67288 11.8745 8.88655C10.9524 9.71148 9.97207 10.469 8.94119 11.1532C8.51344 11.4414 8.07083 11.7069 7.61519 11.9486C7.45232 12.0343 7.28446 12.1102 7.11253 12.1759C7.00148 12.2215 6.88368 12.2485 6.76386 12.2559ZM9.84586 3.75788C9.80095 3.75753 9.75641 3.76603 9.71478 3.78289C9.67315 3.79976 9.63525 3.82465 9.60324 3.85616C9.57124 3.88767 9.54575 3.92518 9.52824 3.96654C9.51073 4.0079 9.50154 4.0523 9.50119 4.09722V6.61455C9.50154 6.65946 9.51073 6.70387 9.52824 6.74523C9.54575 6.78659 9.57124 6.82409 9.60324 6.8556C9.63525 6.88711 9.67315 6.91201 9.71478 6.92887C9.75641 6.94574 9.80095 6.95423 9.84586 6.95388H11.1792C11.2703 6.95403 11.3578 6.91808 11.4225 6.85388C11.4547 6.82273 11.4802 6.78543 11.4976 6.74419C11.515 6.70296 11.5239 6.65864 11.5239 6.61388V6.58655C11.5235 6.54164 11.5143 6.49723 11.4968 6.45587C11.4793 6.41451 11.4538 6.37701 11.4218 6.3455C11.3898 6.31399 11.3519 6.28909 11.3103 6.27223C11.2686 6.25536 11.2241 6.24687 11.1792 6.24722H10.2192V5.70922H11.1779C11.2689 5.70955 11.3564 5.67383 11.4212 5.60988C11.4532 5.57881 11.4787 5.54161 11.4961 5.5005C11.5136 5.45939 11.5225 5.4152 11.5225 5.37055V5.34188C11.5222 5.29697 11.513 5.25257 11.4955 5.21121C11.478 5.16985 11.4525 5.13234 11.4205 5.10083C11.3885 5.06932 11.3506 5.04442 11.3089 5.02756C11.2673 5.0107 11.2228 5.0022 11.1779 5.00255H10.2192V4.46522H11.1779C11.269 4.46537 11.3565 4.42941 11.4212 4.36522C11.4533 4.33406 11.4789 4.29676 11.4963 4.25553C11.5137 4.21429 11.5226 4.16997 11.5225 4.12522V4.09722C11.5225 4.05257 11.5136 4.00838 11.4961 3.96727C11.4787 3.92615 11.4532 3.88896 11.4212 3.85788C11.3564 3.79393 11.2689 3.75822 11.1779 3.75855H9.84453L9.84586 3.75788ZM7.14319 5.10322L8.39719 6.79055C8.40492 6.8024 8.41338 6.81376 8.42253 6.82455C8.45655 6.86928 8.50289 6.90311 8.55586 6.92188C8.59819 6.93906 8.64351 6.94767 8.68919 6.94722H8.71786C8.77386 6.94706 8.82899 6.93333 8.87853 6.90722C8.9106 6.89303 8.93925 6.87211 8.96253 6.84588C8.99418 6.81485 9.01933 6.77782 9.0365 6.73696C9.05367 6.69609 9.06252 6.65221 9.06253 6.60788V4.09122C9.06218 4.0463 9.05299 4.0019 9.03548 3.96054C9.01797 3.91918 8.99248 3.88167 8.96047 3.85016C8.92847 3.81865 8.89057 3.79376 8.84894 3.77689C8.80731 3.76003 8.76277 3.75153 8.71786 3.75188H8.68919C8.59815 3.75155 8.51067 3.78727 8.44586 3.85122C8.4138 3.88229 8.38831 3.91949 8.37091 3.9606C8.3535 4.00171 8.34453 4.0459 8.34453 4.09055V5.56922L7.09719 3.92388C7.06659 3.87169 7.02286 3.82841 6.97035 3.79835C6.91783 3.76829 6.85837 3.7525 6.79786 3.75255H6.77053C6.67948 3.75222 6.592 3.78793 6.52719 3.85188C6.49514 3.88296 6.46965 3.92015 6.45224 3.96127C6.43483 4.00238 6.42586 4.04657 6.42586 4.09122V6.60855C6.42577 6.65331 6.4347 6.69763 6.45211 6.73886C6.46952 6.78009 6.49505 6.8174 6.52719 6.84855C6.59189 6.91274 6.67938 6.9487 6.77053 6.94855H6.79919C6.89034 6.9487 6.97783 6.91274 7.04253 6.84855C7.07467 6.8174 7.1002 6.78009 7.11761 6.73886C7.13502 6.69763 7.14395 6.65331 7.14386 6.60855V5.10322H7.14319ZM5.56786 3.75188C5.47672 3.75173 5.38923 3.78769 5.32453 3.85188C5.29247 3.88296 5.26698 3.92015 5.24957 3.96127C5.23217 4.00238 5.2232 4.04657 5.22319 4.09122V6.60855C5.22311 6.65331 5.23203 6.69763 5.24944 6.73886C5.26685 6.78009 5.29239 6.8174 5.32453 6.84855C5.38923 6.91274 5.47672 6.9487 5.56786 6.94855H5.59653C5.68767 6.9487 5.77516 6.91274 5.83986 6.84855C5.872 6.8174 5.89753 6.78009 5.91494 6.73886C5.93235 6.69763 5.94128 6.65331 5.94119 6.60855V4.09122C5.94119 4.04657 5.93222 4.00238 5.91481 3.96127C5.89741 3.92015 5.87192 3.88296 5.83986 3.85188C5.77516 3.78769 5.68767 3.75173 5.59653 3.75188H5.56786ZM3.26919 3.75188C3.17805 3.75173 3.09056 3.78769 3.02586 3.85188C2.9938 3.88296 2.96831 3.92015 2.95091 3.96127C2.9335 4.00238 2.92453 4.04657 2.92453 4.09122V6.60855C2.92444 6.65331 2.93337 6.69763 2.95078 6.73886C2.96819 6.78009 2.99372 6.8174 3.02586 6.84855C3.09056 6.91274 3.17805 6.9487 3.26919 6.94855H4.60253C4.69367 6.9487 4.78116 6.91274 4.84586 6.84855C4.878 6.8174 4.90353 6.78009 4.92094 6.73886C4.93835 6.69763 4.94728 6.65331 4.94719 6.60855V6.57988C4.94728 6.53512 4.93835 6.49081 4.92094 6.44957C4.90353 6.40834 4.878 6.37104 4.84586 6.33988C4.78116 6.27569 4.69367 6.23973 4.60253 6.23988H3.64253V4.09122C3.64252 4.04657 3.63355 4.00238 3.61615 3.96127C3.59874 3.92015 3.57325 3.88296 3.54119 3.85188C3.47649 3.78769 3.389 3.75173 3.29786 3.75188H3.26919Z" fill="#505050"/>
</svg>
