<svg width="119" height="31" viewBox="0 0 119 31" fill="none" xmlns="http://www.w3.org/2000/svg">
<g clip-path="url(#clip0_1_92)">
<path d="M16.3074 20.7141H12.3524V28.7723H16.3074V20.7141Z" fill="#B5B5B6"/>
<path d="M44.538 20.7141H40.4419V28.7723H44.538V20.7141Z" fill="#666464"/>
<path d="M30.3603 20.7141H26.3877V28.7723H30.3603V20.7141Z" fill="#949495"/>
<path d="M118.5 20.7141H54.6247V28.7723H118.5V20.7141Z" fill="black"/>
<path d="M43.2158 4.3686C43.2158 4.3686 42.6865 4.52383 42.6971 4.69671C42.7112 4.87664 42.6971 8.72224 42.6971 8.72224C42.6971 8.72224 42.623 8.80339 42.9229 8.80339C43.2228 8.80339 44.9798 8.73635 45.4984 10.3452C45.6678 12.2433 45.6007 12.2327 45.6007 12.2327V30.2858H53.3731V0.508881H48.7689C48.7689 0.508881 46.4898 3.24667 43.2193 4.3686H43.2158Z" fill="#E60012"/>
<path d="M29.2585 4.3686C29.2585 4.3686 28.7257 4.52383 28.7434 4.69671C28.7539 4.87664 28.7434 8.72224 28.7434 8.72224C28.7434 8.72224 28.6622 8.80339 28.9586 8.80339C29.2549 8.80339 31.0225 8.73635 31.5305 10.3452C31.7034 12.2433 31.6399 12.2327 31.6399 12.2327V30.2858H39.4123V0.508881H34.8011C34.8011 0.508881 32.529 3.24667 29.2549 4.3686H29.2585Z" fill="#E60012"/>
<path d="M15.0889 4.3686C15.0889 4.3686 14.5667 4.52383 14.5738 4.69671C14.5879 4.87664 14.5738 8.72224 14.5738 8.72224C14.5738 8.72224 14.4997 8.80339 14.796 8.80339C15.0924 8.80339 16.8564 8.73635 17.3715 10.3452C17.5409 12.2433 17.4809 12.2327 17.4809 12.2327V30.2858H25.2533V0.508881H20.6385C20.6385 0.508881 18.3594 3.24667 15.0889 4.3686Z" fill="#E60012"/>
<path d="M1.02481 4.36853C1.02481 4.36853 0.499123 4.52377 0.509707 4.69665C0.523819 4.87658 0.509707 8.72218 0.509707 8.72218C0.509707 8.72218 0.428561 8.80333 0.735504 8.80333C1.02481 8.80333 2.78884 8.73629 3.30394 10.3451C3.48387 12.2432 3.41331 12.2326 3.41331 12.2326V30.2858H11.1892V0.50882H6.578C6.578 0.50882 4.29533 3.24661 1.02481 4.36853Z" fill="#E60012"/>
<path d="M65.6815 5.44453C65.6674 6.01608 65.6497 6.80284 65.5756 7.69192C65.7873 9.57591 66.7081 15.5948 71.972 17.9339C71.5663 18.2514 71.1429 18.7489 70.9454 19.1264C67.3996 17.4506 65.7556 14.1342 64.9582 11.4352C64.2032 14.2718 62.605 17.3165 59.1969 19.204C58.957 18.8406 58.5018 18.389 58.0361 18.0892C64.2032 14.8927 64.0374 7.86479 64.0833 5.45159H65.6815V5.44453Z" fill="#231815"/>
<path d="M85.7973 8.59897C85.7973 8.59897 85.7832 9.09643 85.7655 9.294C85.4339 15.4011 85.1481 17.6344 84.4848 18.4035C84.0791 18.8868 83.684 19.0385 83.0983 19.0985C82.555 19.1585 81.5918 19.1444 80.6992 19.0985C80.6675 18.6928 80.4734 18.0718 80.2018 17.652C81.1967 17.7437 82.1175 17.7437 82.495 17.7437C82.8267 17.7437 83.0066 17.6979 83.19 17.5179C83.7016 17.0346 84.0191 14.9707 84.2767 10.0384H79.5561C79.3303 13.1467 78.3037 16.7947 74.0206 19.3278C73.7948 18.9821 73.2656 18.4529 72.9339 18.1953C76.8536 15.9479 77.8344 12.7515 78.0602 10.0349H73.3855V8.6025H78.1378V5.43076H79.6161V8.59897H85.8008H85.7973Z" fill="#231815"/>
<path d="M93.2785 16.3217L93.3984 17.4965C91.4827 17.9658 89.447 18.4773 87.9087 18.8372L87.563 17.4789C88.2263 17.3589 89.0553 17.1931 89.9762 17.0097V13.0123H87.7888V11.7916H89.9762V10.3733H88.572V9.69595C88.3603 9.87588 88.1486 10.0593 87.9546 10.1934C87.8629 9.90764 87.5312 9.18438 87.3513 8.85274C88.5579 8.03776 89.8245 6.74295 90.5654 5.38464L91.7261 5.82213C91.6344 5.97383 91.5462 6.15376 91.4403 6.31958C92.3294 6.99697 93.2361 7.79785 93.7794 8.38704L92.9362 9.38195C92.407 8.8104 91.5638 8.00953 90.7806 7.33214C90.2831 7.99542 89.7257 8.63047 89.1506 9.18791H92.6505V10.3804H91.2039V11.7987H93.2396V13.0194H91.2039V16.7592L93.2855 16.3217H93.2785ZM89.0412 13.6686C89.327 14.5294 89.5987 15.6302 89.6904 16.3675L88.6814 16.6533C88.6214 15.9159 88.3497 14.7693 88.0922 13.8944L89.0412 13.6686ZM91.4544 16.0959C91.6802 15.3726 91.966 14.2401 92.1036 13.4569L93.1585 13.7603C92.8727 14.6353 92.5552 15.6902 92.2835 16.3711L91.4544 16.0994V16.0959ZM101.181 14.0461C100.518 14.5894 99.689 15.1786 98.9798 15.6161C99.629 16.5969 100.426 17.3942 101.407 17.8776C101.076 18.1492 100.652 18.6925 100.44 19.07C98.4047 17.8776 97.1981 15.5561 96.489 12.7372H95.4341V17.2919L97.6956 16.6745C97.6956 17.052 97.7556 17.5953 97.8156 17.9128C94.7532 18.8478 94.2557 19.0454 93.9559 19.2853C93.8818 18.9536 93.6701 18.3644 93.4725 18.0787C93.7583 17.9587 94.0758 17.7153 94.0758 17.1578V6.04792H100.652V12.7301H97.7097C97.9073 13.3793 98.1331 13.9967 98.4047 14.5859C99.0539 14.1343 99.7913 13.5451 100.275 13.0794L101.181 14.0461ZM95.4341 7.25805V8.79629H99.2938V7.25805H95.4341ZM95.4341 11.5129H99.2938V9.94292H95.4341V11.5129Z" fill="#231815"/>
<path d="M107.424 9.11029C106.958 9.87941 106.397 10.6626 105.779 11.4177V19.2747H104.375V12.97C103.878 13.4675 103.366 13.9367 102.883 14.3283C102.703 14.0284 102.206 13.4075 101.916 13.1358C103.454 12.0351 105.084 10.3169 106.093 8.6093L107.42 9.10676L107.424 9.11029ZM106.852 5.94208C105.825 7.28275 104.259 8.77865 102.869 9.75946C102.703 9.44193 102.325 8.89861 102.071 8.62695C103.324 7.81196 104.77 6.47129 105.511 5.38464L106.856 5.94208H106.852ZM115.901 11.7352H113.728V17.5424C113.728 18.3433 113.548 18.749 112.973 18.9748C112.416 19.1865 111.527 19.2006 110.122 19.2006C110.063 18.7949 109.865 18.2057 109.671 17.7964C110.638 17.8282 111.647 17.8282 111.918 17.8105C112.204 17.8105 112.296 17.7364 112.296 17.5248V11.7352H107.529V10.3945H115.901V11.7352ZM115.478 7.61792H108.164V6.27725H115.478V7.61792Z" fill="#231815"/>
<path d="M59.2249 27.0857L58.0889 23.7093H58.738L59.3307 25.6568L59.5495 26.3836C59.5601 26.3483 59.6236 26.1155 59.7435 25.6886L60.3362 23.7093H60.9819L61.5393 25.6674L61.7263 26.313L61.9415 25.6603L62.5766 23.7093H63.1869L62.0262 27.0857H61.3735L60.7843 25.0641L60.6397 24.489L59.8882 27.0857H59.232H59.2249Z" fill="white"/>
<path d="M64.3434 27.0857L63.2074 23.7093H63.8566L64.4493 25.6568L64.668 26.3836C64.6786 26.3483 64.7421 26.1155 64.8621 25.6886L65.4548 23.7093H66.1004L66.6579 25.6674L66.8448 26.313L67.0601 25.6603L67.6951 23.7093H68.3055L67.1447 27.0857H66.492L65.9028 25.0641L65.7582 24.489L65.0067 27.0857H64.3505H64.3434Z" fill="white"/>
<path d="M69.4619 27.0857L68.3259 23.7093H68.9751L69.5678 25.6568L69.7865 26.3836C69.7971 26.3483 69.8606 26.1155 69.9806 25.6886L70.5733 23.7093H71.2189L71.7764 25.6674L71.9633 26.313L72.1786 25.6603L72.8136 23.7093H73.424L72.2632 27.0857H71.6105L71.0213 25.0641L70.8767 24.489L70.1252 27.0857H69.469H69.4619Z" fill="white"/>
<path d="M74.0459 27.0885V26.4364H74.7649V27.0885H74.0459Z" fill="white"/>
<path d="M78.1017 27.0857H77.4737V23.4376C77.322 23.5682 77.1244 23.7022 76.881 23.8328C76.6375 23.9633 76.4153 24.0621 76.2212 24.1291V23.5752C76.5705 23.4235 76.8774 23.2436 77.142 23.0284C77.4031 22.8132 77.5901 22.605 77.6995 22.4039H78.1052V27.0857H78.1017Z" fill="white"/>
<path d="M82.0659 27.0857H81.4379V23.4376C81.2862 23.5682 81.0886 23.7022 80.8416 23.8328C80.5947 23.9633 80.3759 24.0621 80.1783 24.1291V23.5752C80.5312 23.4235 80.8381 23.2436 81.1027 23.0284C81.3673 22.8132 81.5508 22.605 81.6601 22.4039H82.0659V27.0857Z" fill="white"/>
<path d="M86.03 27.0857H85.3985V23.4376C85.2468 23.5682 85.0457 23.7022 84.7987 23.8328C84.5518 23.9633 84.3295 24.0621 84.1354 24.1291V23.5752C84.4882 23.4235 84.7987 23.2436 85.0633 23.0284C85.3279 22.8132 85.5149 22.605 85.6243 22.4039H86.03V27.0857Z" fill="white"/>
<path d="M89.9839 27.0857H89.3559V23.4376C89.2042 23.5682 89.0066 23.7022 88.7596 23.8328C88.5127 23.9633 88.2939 24.0621 88.0963 24.1291V23.5752C88.4492 23.4235 88.7561 23.2436 89.0207 23.0284C89.2853 22.8132 89.4688 22.605 89.5781 22.4039H89.9839V27.0857Z" fill="white"/>
<path d="M91.8908 27.092V26.44H92.6098V27.092H91.8908Z" fill="white"/>
<path d="M96.1696 25.8543L96.7906 25.9284C96.7235 26.3164 96.5507 26.6199 96.2719 26.8386C95.9932 27.0573 95.651 27.1667 95.2453 27.1667C94.7372 27.1667 94.328 27.015 94.0175 26.7151C93.707 26.4117 93.5553 25.9813 93.5553 25.4168C93.5553 25.0534 93.6224 24.7323 93.7564 24.4607C93.8905 24.1855 94.0916 23.9809 94.3632 23.8468C94.6349 23.7092 94.9313 23.6422 95.2488 23.6422C95.651 23.6422 95.9826 23.7339 96.2402 23.9209C96.4977 24.1079 96.66 24.3689 96.7341 24.7112L96.1202 24.7958C96.0603 24.57 95.9579 24.3972 95.8098 24.2843C95.6616 24.1714 95.4817 24.1114 95.2735 24.1114C94.956 24.1114 94.6984 24.2137 94.5009 24.4219C94.3033 24.63 94.2045 24.9546 94.2045 25.4027C94.2045 25.8507 94.2998 26.1859 94.4903 26.3905C94.6808 26.5952 94.9313 26.6975 95.2382 26.6975C95.4852 26.6975 95.6933 26.6269 95.8592 26.4893C96.025 26.3517 96.1308 26.14 96.1732 25.8543H96.1696Z" fill="white"/>
<path d="M97.0887 25.4027C97.0887 24.7782 97.2793 24.3125 97.6638 24.0126C97.9849 23.7621 98.373 23.6386 98.8316 23.6386C99.3432 23.6386 99.7595 23.7903 100.084 24.0937C100.409 24.3972 100.571 24.817 100.571 25.3533C100.571 25.7872 100.5 26.1294 100.356 26.3799C100.211 26.6304 100.003 26.821 99.7277 26.9585C99.4526 27.0961 99.1562 27.1667 98.8316 27.1667C98.313 27.1667 97.8896 27.015 97.5686 26.7116C97.2475 26.4082 97.0887 25.9707 97.0887 25.4027ZM97.7379 25.4027C97.7379 25.8366 97.8402 26.1577 98.0484 26.3729C98.2565 26.5881 98.5176 26.6939 98.8316 26.6939C99.1456 26.6939 99.4032 26.5846 99.6113 26.3694C99.8195 26.1541 99.9218 25.8225 99.9218 25.3815C99.9218 24.9652 99.816 24.6477 99.6078 24.4324C99.3996 24.2172 99.1386 24.1114 98.8281 24.1114C98.5176 24.1114 98.253 24.2172 98.0449 24.4324C97.8367 24.6477 97.7344 24.9687 97.7344 25.4027H97.7379Z" fill="white"/>
<path d="M101.265 27.0928V23.7165H101.83V24.1892C101.946 24.0234 102.101 23.8893 102.295 23.7905C102.49 23.6882 102.708 23.6388 102.955 23.6388C103.23 23.6388 103.456 23.6918 103.633 23.7941C103.809 23.8964 103.932 24.0446 104.007 24.228C104.299 23.8329 104.684 23.6353 105.153 23.6353C105.52 23.6353 105.806 23.727 106.003 23.914C106.201 24.101 106.3 24.3868 106.3 24.7714V27.0893H105.675V24.9619C105.675 24.7325 105.654 24.5667 105.615 24.4679C105.573 24.3656 105.499 24.2845 105.393 24.2245C105.287 24.1645 105.16 24.1328 105.016 24.1328C104.755 24.1328 104.539 24.2104 104.366 24.3692C104.194 24.5279 104.109 24.7784 104.109 25.1277V27.0893H103.481V24.8948C103.481 24.6408 103.431 24.4503 103.326 24.3233C103.223 24.1963 103.054 24.1328 102.821 24.1328C102.645 24.1328 102.479 24.1751 102.331 24.2598C102.179 24.3445 102.073 24.4679 102.003 24.6302C101.932 24.7925 101.9 25.0289 101.9 25.3358V27.0893H101.272L101.265 27.0928Z" fill="white"/>
<path d="M107.337 27.092V26.44H108.038V27.092H107.337Z" fill="white"/>
<path d="M110.537 26.5776L110.629 27.0821C110.449 27.1174 110.29 27.1315 110.149 27.1315C109.92 27.1315 109.74 27.0998 109.613 27.0327C109.486 26.9657 109.397 26.881 109.345 26.7752C109.292 26.6693 109.267 26.4435 109.267 26.1013V24.1573H108.801V23.7128H109.267V22.8766L109.898 22.5344V23.7128H110.537V24.1573H109.898V26.1331C109.898 26.2954 109.909 26.4012 109.93 26.4471C109.951 26.4929 109.99 26.5317 110.04 26.56C110.089 26.5882 110.163 26.6023 110.258 26.6023C110.329 26.6023 110.421 26.5952 110.537 26.5811V26.5776Z" fill="white"/>
<path d="M111.9 27.0857L110.757 23.7093H111.41L112.006 25.6568L112.228 26.3836C112.239 26.3483 112.302 26.1155 112.422 25.6886L113.019 23.7093H113.671L114.229 25.6674L114.416 26.313L114.631 25.6603L115.273 23.7093H115.887L114.719 27.0857H114.059L113.467 25.0641L113.322 24.489L112.567 27.0857H111.907H111.9Z" fill="white"/>
</g>
<defs>
<clipPath id="clip0_1_92">
<rect width="118" height="29.7805" fill="white" transform="translate(0.5 0.50882)"/>
</clipPath>
</defs>
</svg>
