<svg width="29" height="29" viewBox="0 0 29 29" fill="none" xmlns="http://www.w3.org/2000/svg">
<g clip-path="url(#clip0_16_41)">
<path d="M21.5 5.47144C21.5 4.31207 20.5594 3.37144 19.4 3.37144H15.2C14.0406 3.37144 13.1 4.31207 13.1 5.47144V7.57144H10.3V4.42144C10.3 3.83957 9.83187 3.37144 9.25 3.37144C8.66813 3.37144 8.2 3.83957 8.2 4.42144V7.57144H5.4V4.42144C5.4 3.83957 4.93187 3.37144 4.35 3.37144C3.76812 3.37144 3.3 3.83957 3.3 4.42144V7.57144H2.6C1.44063 7.57144 0.5 8.51207 0.5 9.67144V13.8714V23.6714C0.5 24.8308 1.44063 25.7714 2.6 25.7714H13.8H15.2H19.4H26.4C27.5594 25.7714 28.5 24.8308 28.5 23.6714V13.8714C28.5 12.7121 27.5594 11.7714 26.4 11.7714H21.5V5.47144ZM25.7 19.4714V20.8714C25.7 21.2564 25.385 21.5714 25 21.5714H23.6C23.215 21.5714 22.9 21.2564 22.9 20.8714V19.4714C22.9 19.0864 23.215 18.7714 23.6 18.7714H25C25.385 18.7714 25.7 19.0864 25.7 19.4714ZM11 21.5714H9.6C9.215 21.5714 8.9 21.2564 8.9 20.8714V19.4714C8.9 19.0864 9.215 18.7714 9.6 18.7714H11C11.385 18.7714 11.7 19.0864 11.7 19.4714V20.8714C11.7 21.2564 11.385 21.5714 11 21.5714ZM6.1 20.8714C6.1 21.2564 5.785 21.5714 5.4 21.5714H4C3.615 21.5714 3.3 21.2564 3.3 20.8714V19.4714C3.3 19.0864 3.615 18.7714 4 18.7714H5.4C5.785 18.7714 6.1 19.0864 6.1 19.4714V20.8714ZM25 14.5714C25.385 14.5714 25.7 14.8864 25.7 15.2714V16.6714C25.7 17.0564 25.385 17.3714 25 17.3714H23.6C23.215 17.3714 22.9 17.0564 22.9 16.6714V15.2714C22.9 14.8864 23.215 14.5714 23.6 14.5714H25ZM11.7 11.0714V12.4714C11.7 12.8564 11.385 13.1714 11 13.1714H9.6C9.215 13.1714 8.9 12.8564 8.9 12.4714V11.0714C8.9 10.6864 9.215 10.3714 9.6 10.3714H11C11.385 10.3714 11.7 10.6864 11.7 11.0714ZM5.4 10.3714C5.785 10.3714 6.1 10.6864 6.1 11.0714V12.4714C6.1 12.8564 5.785 13.1714 5.4 13.1714H4C3.615 13.1714 3.3 12.8564 3.3 12.4714V11.0714C3.3 10.6864 3.615 10.3714 4 10.3714H5.4ZM11.7 16.6714C11.7 17.0564 11.385 17.3714 11 17.3714H9.6C9.215 17.3714 8.9 17.0564 8.9 16.6714V15.2714C8.9 14.8864 9.215 14.5714 9.6 14.5714H11C11.385 14.5714 11.7 14.8864 11.7 15.2714V16.6714ZM5.4 17.3714H4C3.615 17.3714 3.3 17.0564 3.3 16.6714V15.2714C3.3 14.8864 3.615 14.5714 4 14.5714H5.4C5.785 14.5714 6.1 14.8864 6.1 15.2714V16.6714C6.1 17.0564 5.785 17.3714 5.4 17.3714ZM18.7 15.2714V16.6714C18.7 17.0564 18.385 17.3714 18 17.3714H16.6C16.215 17.3714 15.9 17.0564 15.9 16.6714V15.2714C15.9 14.8864 16.215 14.5714 16.6 14.5714H18C18.385 14.5714 18.7 14.8864 18.7 15.2714ZM18 6.17144C18.385 6.17144 18.7 6.48644 18.7 6.87144V8.27144C18.7 8.65644 18.385 8.97144 18 8.97144H16.6C16.215 8.97144 15.9 8.65644 15.9 8.27144V6.87144C15.9 6.48644 16.215 6.17144 16.6 6.17144H18ZM18.7 11.0714V12.4714C18.7 12.8564 18.385 13.1714 18 13.1714H16.6C16.215 13.1714 15.9 12.8564 15.9 12.4714V11.0714C15.9 10.6864 16.215 10.3714 16.6 10.3714H18C18.385 10.3714 18.7 10.6864 18.7 11.0714Z" fill="#D9D9D9"/>
</g>
<defs>
<clipPath id="clip0_16_41">
<rect width="28" height="28" fill="white" transform="translate(0.5 0.571442)"/>
</clipPath>
</defs>
</svg>
