<?xml version="1.0" encoding="utf-8"?>
<!-- Generator: Adobe Illustrator 27.0.0, SVG Export Plug-In . SVG Version: 6.00 Build 0)  -->
<svg version="1.1" id="圖層_1" xmlns="http://www.w3.org/2000/svg" xmlns:xlink="http://www.w3.org/1999/xlink" x="0px" y="0px"
	 viewBox="0 0 135 135" style="enable-background:new 0 0 135 135;" xml:space="preserve">
<style type="text/css">
	.st0{clip-path:url(#SVGID_00000042001930864927366690000006155153381470436250_);fill:#F0E7DE;}
	.st1{clip-path:url(#SVGID_00000042001930864927366690000006155153381470436250_);fill:#CA8348;}
</style>
<g>
	<defs>
		<rect id="SVGID_1_" width="135" height="135"/>
	</defs>
	<clipPath id="SVGID_00000051358657595230993660000013197557540997640637_">
		<use xlink:href="#SVGID_1_"  style="overflow:visible;"/>
	</clipPath>
	
		<rect style="clip-path:url(#SVGID_00000051358657595230993660000013197557540997640637_);fill:#F0E7DE;" width="135" height="135"/>
	<path style="clip-path:url(#SVGID_00000051358657595230993660000013197557540997640637_);fill:#CA8348;" d="M124.9,117.3
		c-1-3-8.4-11-9.8-12.9c-4-5.3-29-13.2-30.1-14.1c-1.1-0.9-4.6-5.6-4.6-5.6h-0.2v-5.2c1.5-1.9,2.7-3.8,3.4-5.3c0.5-1,0.9-3.2,1.3-6
		c4.1-1.9,4.6-8.5,4.8-12.1c0.1-2.5-1.7-1.8-2.9-1c0.4-1.9,0.8-3.9,1.1-6.1c0.1-0.6,0.1-1.1,0.2-1.7c0.5-3.2,0.6-6.5,0.5-9.7
		c0.5,0.2,1,0.4,1.5,0.6c-1.1-3-2.7-5.7-4.9-8.1c0.5-0.3,1-0.6,1.4-0.9c-2.3-1.6-4.9-2.5-7.6-2.8c-2.3-1.8-5.1-3-8-3.8
		c-4.4-1.1-9-1.2-13.6-1.3c0.2,0.8,0.4,1.6,0.5,2.5c-1.9-1.3-4.1-2.3-6.4-2.7c0.2,1,0.5,2.1,0.8,3.1c-0.9-0.1-1.9-0.3-2.8-0.4
		c0.2,1,0.4,2.1,0.6,3.1c-0.6-0.2-1.1-0.4-1.7-0.6c0,2,0.1,3.9,0.1,5.9c-0.4-0.3-0.8-0.6-1.2-0.9c1,5.9-1.7,12-1,18
		c0.1,1.2,0.4,2.4,0.8,3.6c0.1,0.6,0.3,1.2,0.5,1.9c-1.2-0.7-2.7-1.2-2.6,1.2c0.2,3.7,0.7,10.3,4.8,12.2c0.4,2.8,0.8,5,1.3,6
		c0.7,1.5,1.9,3.4,3.3,5.2v5.3H54c0,0-3.5,4.7-4.6,5.6c-1.1,0.9-26.1,8.8-30.1,14.1c-1.4,1.9-2.6,4.5-3.6,7.5
		c-63.2,61.9,31,51.8,52.3,51.8S192.1,173.1,124.9,117.3L124.9,117.3z"/>
</g>
</svg>
