<svg width="13" height="11" viewBox="0 0 13 11" fill="none" xmlns="http://www.w3.org/2000/svg">
<path d="M12.5129 1.86066C12.068 2.05771 11.5961 2.18693 11.1129 2.244C11.622 1.93972 12.003 1.46058 12.1849 0.895998C11.7068 1.17985 11.1837 1.37984 10.6382 1.48733C10.271 1.0965 9.78517 0.83765 9.25597 0.750861C8.72677 0.664073 8.18371 0.754192 7.71091 1.00726C7.23811 1.26033 6.86193 1.66223 6.64065 2.15071C6.41936 2.6392 6.36531 3.18702 6.48687 3.70933C5.51832 3.66056 4.57087 3.40863 3.70602 2.96989C2.84117 2.53115 2.07828 1.91541 1.46687 1.16267C1.15534 1.69894 1.0599 2.33379 1.19998 2.93795C1.34006 3.54212 1.70513 4.0702 2.22086 4.41466C1.83405 4.40257 1.45574 4.2981 1.11753 4.11C1.11753 4.12 1.11753 4.13066 1.11753 4.14066C1.11759 4.70314 1.31219 5.24828 1.66833 5.68364C2.02447 6.119 2.52023 6.41779 3.07153 6.52933C2.71284 6.62687 2.33662 6.64123 1.97153 6.57133C2.12713 7.05527 2.4301 7.47847 2.83808 7.78174C3.24605 8.085 3.73861 8.25315 4.24686 8.26267C3.38402 8.93991 2.31842 9.30717 1.22153 9.30533C1.02728 9.30588 0.833165 9.29497 0.640198 9.27267C1.6872 9.94404 2.89564 10.3212 4.13865 10.3644C5.38166 10.4077 6.61339 10.1154 7.70452 9.51846C8.79565 8.92148 9.70593 8.04174 10.3398 6.97161C10.9736 5.90147 11.3077 4.68043 11.3069 3.43666C11.3069 3.33088 11.3044 3.22577 11.2995 3.12133C11.7764 2.7767 12.1879 2.3498 12.5149 1.86066H12.5129Z" fill="#505050"/>
</svg>
