<svg width="25" height="24" viewBox="0 0 25 24" fill="none" xmlns="http://www.w3.org/2000/svg">
<path d="M1.54033 13.1484L11.4398 22.8095C12.0256 23.3812 12.9754 23.3812 13.5611 22.8095C14.1469 22.2378 14.1469 21.3109 13.5611 20.7393L3.66165 11.0782C3.07587 10.5065 2.12612 10.5065 1.54033 11.0782C0.954547 11.6499 0.954547 12.5768 1.54033 13.1484Z" fill="white"/>
<path d="M3.66167 13.1484L13.5612 3.48738C14.147 2.91571 14.147 1.98883 13.5612 1.41716C12.9754 0.845481 12.0256 0.845481 11.4398 1.41716L1.54035 11.0782C0.954565 11.6499 0.954565 12.5768 1.54035 13.1484C2.12614 13.7201 3.07589 13.7201 3.66167 13.1484Z" fill="white"/>
</svg>
