<svg width="19" height="18" viewBox="0 0 19 18" fill="none" xmlns="http://www.w3.org/2000/svg">
<path d="M0.776245 17.3847L12.4511 13.2151L4.94584 5.70984L0.776245 17.3847Z" fill="#EF6262"/>
<path d="M11.2253 9.48736L15.8869 4.82576C16.2955 4.41714 16.9543 4.41714 17.3629 4.82576L17.8549 5.31777L18.7389 4.43381L18.2469 3.9418C17.3546 3.04951 15.8952 3.04951 15.0029 3.9418L10.3413 8.60341L11.2253 9.48736Z" fill="#EF6262"/>
<path d="M7.49763 4.77595L7.00562 5.26796L7.88957 6.15192L8.38158 5.6599C9.27387 4.76761 9.27387 3.30825 8.38158 2.41596L7.88957 1.92395L7.00562 2.81624L7.49763 3.30825C7.89791 3.70854 7.89791 4.37567 7.49763 4.77595Z" fill="#EF6262"/>
<path d="M13.3351 8.94534L12.0092 10.2713L12.8931 11.1552L14.219 9.8293C14.6277 9.42068 15.2865 9.42068 15.6951 9.8293L17.0377 11.1719L17.9216 10.288L16.579 8.94534C15.6784 8.05305 14.2274 8.05305 13.3351 8.94534Z" fill="#EF6262"/>
<path d="M11.6672 3.94202L8.67346 6.93579L9.55742 7.81974L12.5512 4.82598C13.4435 3.93368 13.4435 2.47433 12.5512 1.58203L11.2253 0.256104L10.3413 1.14006L11.6672 2.46599C12.0675 2.87461 12.0675 3.54174 11.6672 3.94202Z" fill="#EF6262"/>
</svg>
