<svg width="23" height="24" viewBox="0 0 23 24" fill="none" xmlns="http://www.w3.org/2000/svg">
<path d="M15.7033 7.20329L10.5624 12.5905C10.5624 12.5905 10.5439 12.5905 10.5336 12.5905C10.47 12.5905 10.4064 12.5967 10.3448 12.609L6.04322 9.35819C5.75795 9.14475 5.34955 9.19811 5.132 9.48748C4.91446 9.77275 4.97193 10.1832 5.25925 10.3987L9.56084 13.6495C9.60189 14.1503 10.0226 14.5443 10.5336 14.5443C11.0734 14.5443 11.5105 14.1072 11.5105 13.5674C11.5105 13.5408 11.5105 13.5161 11.5064 13.4915L16.6474 8.10424C16.8957 7.8436 16.8855 7.43314 16.6248 7.18276C16.3662 6.93444 15.9537 6.9447 15.7033 7.20534V7.20329Z" fill="#C15E0B"/>
<path d="M10.1682 0.048996C9.66539 0.0966009 9.16673 0.180823 8.67619 0.300995C7.64313 0.55662 6.65345 0.963338 5.73918 1.508C3.9532 2.55224 2.47656 4.05202 1.46018 5.854C0.475269 7.6139 -0.0279779 9.60246 0.00120033 11.619C0.0353355 13.5516 0.536953 15.4473 1.46324 17.1438C2.38952 18.8403 3.71288 20.2873 5.32017 21.361C6.17567 21.9208 7.10675 22.3555 8.08519 22.652C9.0344 22.9358 10.0168 23.0935 11.0072 23.121C13.0605 23.166 15.0853 22.6338 16.8512 21.585C18.0907 20.8377 19.1847 19.8721 20.0802 18.735C20.5281 18.1681 20.9158 17.5561 21.2372 16.909C21.55 16.3088 21.8006 15.6782 21.9851 15.027C22.1367 14.3725 22.2523 13.7102 22.3312 13.043C22.4332 12.4358 22.4821 11.8208 22.4772 11.205C22.4571 10.5468 22.3859 9.89116 22.2642 9.244C22.1742 8.682 22.0642 8.126 21.9182 7.578C21.9056 7.425 21.8598 7.27658 21.7842 7.14301C21.7793 7.1303 21.7729 7.11821 21.7652 7.10699C21.6908 6.96386 21.598 6.83108 21.4892 6.71201C21.3539 6.56739 21.1836 6.46012 20.9948 6.40056C20.8059 6.341 20.6049 6.33117 20.4112 6.37201C20.1708 6.42512 19.9549 6.55639 19.7972 6.74529C19.6394 6.93419 19.5486 7.17006 19.5392 7.416C19.5371 7.57691 19.555 7.73745 19.5922 7.894V7.914L19.5982 7.937C19.6191 8.02387 19.6507 8.10784 19.6922 8.187C19.7752 8.35 19.8592 8.48701 19.9372 8.65201C19.9912 8.76601 20.0372 8.88899 20.0792 9.00999L20.0722 8.993C20.2525 9.52643 20.3716 10.0787 20.4272 10.639C20.4861 11.4168 20.4697 12.1984 20.3782 12.973C20.1815 13.7117 19.9222 14.4323 19.6032 15.127C19.2333 15.86 18.7839 16.5502 18.2632 17.185C17.7401 17.7698 17.155 18.2959 16.5182 18.754C15.874 19.1744 15.19 19.5305 14.4762 19.817C13.6333 20.1026 12.7613 20.2934 11.8762 20.386C11.0172 20.4355 10.1554 20.394 9.30516 20.262C8.47726 20.088 7.67014 19.8269 6.8972 19.483C6.19197 19.1274 5.52541 18.6998 4.90818 18.207C4.33473 17.7056 3.81463 17.1463 3.35618 16.538C2.96591 15.9667 2.63742 15.3556 2.3762 14.715C2.09675 13.9257 1.90819 13.1071 1.81419 12.275C1.76003 11.4708 1.79998 10.663 1.93321 9.868C2.09457 9.08487 2.33998 8.32145 2.6652 7.591C3.35816 6.14434 4.41886 4.90501 5.74119 3.99701C6.35252 3.59857 7.00286 3.2635 7.68217 2.99701C8.52213 2.70824 9.39197 2.51502 10.2752 2.42101C11.0771 2.3703 11.8822 2.41022 12.6752 2.54001C13.6802 2.76568 14.6593 3.09407 15.5971 3.52L15.4442 3.44701C15.6132 3.52401 15.7832 3.59401 15.9502 3.66901C16.2168 3.82131 16.4724 3.99206 16.7152 4.18001C16.9663 4.34174 17.2713 4.39718 17.5632 4.33418C17.8552 4.27118 18.1102 4.09489 18.2722 3.84401C18.4301 3.59196 18.4834 3.28824 18.4209 2.99747C18.3583 2.70669 18.1848 2.4518 17.9372 2.287C17.6122 2.051 17.2722 1.834 16.9492 1.593L16.9872 1.629C16.8728 1.5319 16.7515 1.44333 16.6242 1.364C16.4242 1.247 16.2242 1.141 16.0322 1.035C15.6304 0.832257 15.2139 0.660103 14.7862 0.520004C14.2701 0.351428 13.741 0.225997 13.2042 0.145004C12.7097 0.0518048 12.2075 0.0052595 11.7042 0.0059967C11.5642 0.0119967 11.4242 0.0119967 11.2852 0.0059967C11.1732 0.0059967 11.0552 0 10.9432 0C10.6872 0 10.4242 0.0270031 10.1662 0.0500031L10.1682 0.048996ZM10.4682 2.40201L10.3622 2.412L10.4682 2.40201ZM3.8582 5.718C3.8422 5.738 3.82718 5.75701 3.80918 5.77501L3.8582 5.718ZM19.5462 15.248L19.5132 15.322C19.5232 15.296 19.5342 15.272 19.5462 15.248ZM14.4462 19.827L14.2392 19.909C14.3082 19.88 14.3762 19.853 14.4462 19.827Z" fill="#C15E0B"/>
<circle cx="11" cy="3.00299" r="1" fill="#C15E0B"/>
<circle cx="11" cy="20.003" r="1" fill="#C15E0B"/>
<circle cx="2" cy="12.003" r="1" fill="#C15E0B"/>
<circle cx="20" cy="12.003" r="1" fill="#C15E0B"/>
</svg>
