<svg width="49" height="87" viewBox="0 0 49 87" fill="none" xmlns="http://www.w3.org/2000/svg">
<path d="M0 35H49" stroke="black"/>
<path d="M24.921 51V86" stroke="black" stroke-linecap="round"/>
<path d="M8.5011 66.5488L24.8781 51.082L30.7433 56.7998L40.7433 66.5488" stroke="black" stroke-linecap="round"/>
<path d="M17.6055 7.73242H13.9668V19H12.4902V7.73242H8.86035V6.39648H17.6055V7.73242ZM21.4023 19.2109C20.0723 19.2109 19.0088 18.792 18.2119 17.9541C17.4209 17.1104 17.0254 15.9941 17.0254 14.6055C17.0254 13.0938 17.4385 11.9131 18.2646 11.0635C19.0908 10.2139 20.207 9.78906 21.6133 9.78906C22.9551 9.78906 24.001 10.2021 24.751 11.0283C25.5068 11.8545 25.8848 13 25.8848 14.4648C25.8848 15.9004 25.4775 17.0518 24.6631 17.9189C23.8545 18.7803 22.7676 19.2109 21.4023 19.2109ZM21.5078 11.002C20.582 11.002 19.8496 11.3184 19.3105 11.9512C18.7715 12.5781 18.502 13.4453 18.502 14.5527C18.502 15.6191 18.7744 16.46 19.3193 17.0752C19.8643 17.6904 20.5938 17.998 21.5078 17.998C22.4395 17.998 23.1543 17.6963 23.6523 17.0928C24.1562 16.4893 24.4082 15.6309 24.4082 14.5176C24.4082 13.3926 24.1562 12.5254 23.6523 11.916C23.1543 11.3066 22.4395 11.002 21.5078 11.002ZM29.6641 17.6992H29.6289V23.1396H28.1875V10H29.6289V11.582H29.6641C30.373 10.3867 31.4102 9.78906 32.7754 9.78906C33.9355 9.78906 34.8408 10.1934 35.4912 11.002C36.1416 11.8047 36.4668 12.8828 36.4668 14.2363C36.4668 15.7422 36.1006 16.9492 35.3682 17.8574C34.6357 18.7598 33.6338 19.2109 32.3623 19.2109C31.1963 19.2109 30.2969 18.707 29.6641 17.6992ZM29.6289 14.0693V15.3262C29.6289 16.0703 29.8691 16.7031 30.3496 17.2246C30.8359 17.7402 31.4512 17.998 32.1953 17.998C33.0684 17.998 33.751 17.6641 34.2432 16.9961C34.7412 16.3281 34.9902 15.3994 34.9902 14.21C34.9902 13.208 34.7588 12.4229 34.2959 11.8545C33.833 11.2861 33.2061 11.002 32.415 11.002C31.5771 11.002 30.9033 11.2949 30.3936 11.8809C29.8838 12.4609 29.6289 13.1904 29.6289 14.0693Z" fill="black"/>
</svg>
