<svg width="34" height="34" viewBox="0 0 34 34" fill="none" xmlns="http://www.w3.org/2000/svg">
<path d="M29.7572 0H4.24283C1.90409 0 0 1.90201 0 4.2409V29.6223C0 29.662 0 29.7017 0 29.7414V29.7569C0 32.0958 1.90188 33.9978 4.24062 33.9978H29.755C32.0937 33.9978 33.9956 32.0958 33.9956 29.7569V4.2409C33.9956 1.90201 32.0937 0 29.755 0H29.7572ZM4.24283 2.42274H29.7572C30.7589 2.42274 31.5752 3.23915 31.5752 4.2409V20.5094L24.9054 13.8348C24.6781 13.6075 24.3692 13.4795 24.0471 13.4795C23.725 13.4795 23.4183 13.6075 23.1888 13.8348L15.8174 21.2111L12.7483 18.1419C12.2762 17.6675 11.5084 17.6697 11.034 18.1419L2.42479 26.7561V4.2409C2.42479 3.23915 3.24114 2.42274 4.24283 2.42274ZM2.46671 30.1408L11.8945 20.7124L22.7564 31.5751H4.24283C3.37132 31.5751 2.64322 30.9594 2.46671 30.1408ZM29.7572 31.5751H26.1829L17.5339 22.9256L24.0493 16.4053L31.5752 23.9383V29.7591C31.5752 30.7609 30.7589 31.5773 29.7572 31.5773V31.5751Z" fill="#EF6262"/>
<path d="M14.1524 10.8273C14.2305 9.41587 13.1498 8.20831 11.7384 8.13014C10.3271 8.05197 9.1196 9.13279 9.04143 10.5442C8.96327 11.9557 10.044 13.1632 11.4554 13.2414C12.8667 13.3196 14.0742 12.2387 14.1524 10.8273Z" fill="#EF6262"/>
</svg>
