<svg width="29" height="23" viewBox="0 0 29 23" fill="none" xmlns="http://www.w3.org/2000/svg">
<path d="M18.3889 15.8467H23.0556C23.6997 15.8467 24.2222 15.3244 24.2222 14.6807C24.2222 14.037 23.6997 13.5147 23.0556 13.5147H18.3889C17.7448 13.5147 17.2222 14.037 17.2222 14.6807C17.2222 15.3244 17.7472 15.8467 18.3889 15.8467ZM10.6111 14.6807C12.3295 14.6807 13.7222 13.2888 13.7222 11.5715C13.7222 9.8541 12.3295 8.46223 10.6111 8.46223C8.89271 8.46223 7.5 9.8541 7.5 11.5715C7.5 13.2888 8.89514 14.6807 10.6111 14.6807ZM25.3889 0.689117H3.61111C1.89271 0.689117 0.5 2.08099 0.5 3.79836V19.3446C0.5 21.062 1.89271 22.4538 3.61111 22.4538H25.3889C27.1073 22.4538 28.5 21.062 28.5 19.3446V3.79836C28.5 2.08099 27.1049 0.689117 25.3889 0.689117ZM26.1667 19.3446C26.1667 19.7731 25.8176 20.1219 25.3889 20.1219H16.0556C16.0556 17.9755 14.3143 16.2353 12.1667 16.2353H9.05556C6.90694 16.2353 5.16667 17.9746 5.16667 20.1219H3.61111C3.18236 20.1219 2.83333 19.7731 2.83333 19.3446V6.9076H26.1667V19.3446ZM18.3889 11.9601H23.0556C23.6997 11.9601 24.2222 11.4379 24.2222 10.7942C24.2222 10.1504 23.6997 9.62819 23.0556 9.62819H18.3889C17.7448 9.62819 17.2222 10.1504 17.2222 10.7942C17.2222 11.4379 17.7472 11.9601 18.3889 11.9601Z" fill="#999999"/>
</svg>
