<svg width="29" height="29" viewBox="0 0 29 29" fill="none" xmlns="http://www.w3.org/2000/svg">
<path d="M21.7917 11.6547H21.0625V9.46724C21.0625 5.8442 18.123 2.90475 14.5 2.90475C10.877 2.90475 7.9375 5.8442 7.9375 9.46724V11.6547H7.20833C5.59961 11.6547 4.29166 12.9627 4.29166 14.5714V23.3214C4.29166 24.9301 5.59961 26.2381 7.20833 26.2381H21.7917C23.4004 26.2381 24.7083 24.9301 24.7083 23.3214V14.5714C24.7083 12.9627 23.4004 11.6547 21.7917 11.6547ZM16.1165 20.6476C16.1165 21.4953 15.4292 22.1821 14.582 22.1821H14.4184C13.5708 22.1821 12.884 21.4948 12.884 20.6476V17.973C12.884 17.1253 13.5712 16.4385 14.4184 16.4385H14.582C15.4297 16.4385 16.1165 17.1258 16.1165 17.973V20.6476ZM18.1458 11.6547H10.8542V9.46724C10.8542 7.45292 12.4857 5.82141 14.5 5.82141C16.5143 5.82141 18.1458 7.45292 18.1458 9.46724V11.6547Z" fill="#999999"/>
</svg>
