<svg width="20" height="28" viewBox="0 0 20 28" fill="none" xmlns="http://www.w3.org/2000/svg">
<path d="M19.4751 9.125C19.4677 8.58177 19.4143 8.04015 19.3152 7.506C19.2742 7.251 19.2331 6.994 19.1871 6.743C19.1374 6.49869 19.0637 6.25987 18.9671 6.03C18.7823 5.53645 18.5541 5.06026 18.2851 4.60701C17.795 3.7502 17.1852 2.96766 16.4741 2.283C16.0894 1.92486 15.6735 1.60191 15.2312 1.31801C14.7612 1.03662 14.2685 0.795111 13.7582 0.596008C12.8449 0.252786 11.8829 0.0566717 10.9082 0.0149994C10.7562 0.00399939 10.6022 0 10.4502 0C10.1362 0 9.82417 0.0199971 9.51317 0.0469971C9.00061 0.0862262 8.49152 0.162766 7.99009 0.276001C7.55609 0.376001 7.12615 0.527004 6.69615 0.660004C6.23969 0.81031 5.79478 0.993795 5.36509 1.209C4.48034 1.67368 3.65565 2.24456 2.90916 2.909C2.70077 3.06881 2.50634 3.24612 2.32811 3.439C2.05825 3.72574 1.81499 4.03635 1.60118 4.367C1.23657 4.92879 0.925758 5.52376 0.673078 6.144C0.51481 6.51175 0.386484 6.89164 0.289167 7.28C0.162043 7.86507 0.0748555 8.45811 0.0281803 9.05501C-0.0203721 9.79729 -0.00508355 10.5424 0.0740788 11.282C0.17322 12.0627 0.379858 12.8259 0.688092 13.55C0.766092 13.75 3.60808 19.108 4.60508 20.574C4.94008 21.068 5.49108 21.762 5.75108 22.169C6.03408 22.613 6.35115 23.032 6.67015 23.453C6.88915 23.78 7.09811 24.113 7.30211 24.447C7.46611 24.712 7.64514 24.973 7.83214 25.22C8.01764 25.4511 8.22937 25.6598 8.46312 25.842C8.65726 25.9679 8.88109 26.0407 9.11216 26.053C9.34065 26.0653 9.5683 26.0171 9.7722 25.9133C9.9761 25.8095 10.149 25.6536 10.2734 25.4616C10.3978 25.2695 10.4692 25.048 10.4806 24.8195C10.4919 24.591 10.4428 24.3635 10.3381 24.16C9.99012 23.56 9.65611 22.952 9.28611 22.366C8.85611 21.689 8.3212 21.09 7.8452 20.441C7.4112 19.841 6.91319 19.297 6.46019 18.712C6.02419 18.154 5.60808 17.585 5.20408 17.012C4.78108 16.347 4.39414 15.673 4.04014 14.971C3.68614 14.269 3.32119 13.563 3.01219 12.835C2.99223 12.6917 2.95487 12.5513 2.90111 12.417C2.87411 12.353 2.8481 12.288 2.8231 12.223C2.67587 11.8121 2.55234 11.3931 2.45311 10.968C2.36855 10.5815 2.3085 10.1901 2.27318 9.79601C2.25753 9.33701 2.28595 8.87755 2.35814 8.424C2.37614 8.344 2.38908 8.251 2.40208 8.188C2.43408 8.023 2.4791 7.853 2.5161 7.688C2.5391 7.583 2.5661 7.47701 2.5941 7.37201C2.6291 7.23601 2.68215 7.103 2.71715 6.965C2.81875 6.65456 2.93927 6.35067 3.07811 6.05501C3.26311 5.69701 3.47815 5.361 3.69615 5.021C3.81515 4.834 3.93809 4.646 4.06309 4.464C4.10909 4.395 4.16309 4.327 4.20909 4.258C4.23869 4.21853 4.2645 4.17635 4.28611 4.132C4.32311 4.083 4.3621 4.03201 4.4011 3.98801C4.78698 3.56476 5.21635 3.18333 5.68211 2.85001C6.24598 2.48483 6.84505 2.17696 7.4702 1.931C7.96037 1.78948 8.46246 1.69309 8.9702 1.64301C9.66484 1.60254 10.3617 1.63976 11.0481 1.754C11.7579 1.91439 12.4482 2.15214 13.1062 2.463C13.9032 2.87222 14.6513 3.37039 15.3362 3.948C15.8031 4.37142 16.2264 4.84043 16.6001 5.34801C16.8135 5.68604 17.0089 6.03519 17.1852 6.394C17.3852 6.799 17.5762 7.224 17.7412 7.649C17.9359 8.26622 18.0593 8.9037 18.1091 9.549C18.1161 9.631 18.1221 9.711 18.1291 9.793C18.1291 9.96 18.1391 10.126 18.1291 10.293C18.1108 10.472 18.0831 10.6499 18.0461 10.826C17.9736 11.2182 17.8672 11.6033 17.7281 11.977C17.576 12.3468 17.4425 12.7239 17.3281 13.107C17.2808 13.2525 17.2825 13.4095 17.3329 13.554C17.3833 13.6985 17.4796 13.8225 17.6072 13.907C17.7608 14.0067 17.9476 14.0416 18.1268 14.0041C18.3061 13.9667 18.4633 13.8599 18.5642 13.707C18.7053 13.4733 18.8306 13.2304 18.9392 12.98C18.9899 12.8482 19.0293 12.7124 19.0571 12.574C19.0891 12.455 19.1121 12.335 19.1341 12.217C19.1871 11.986 19.2341 11.757 19.2721 11.524L19.2901 11.424L19.2811 11.477L19.2901 11.421C19.3751 10.911 19.3981 10.391 19.4371 9.87401C19.4779 9.62657 19.4907 9.3753 19.4751 9.125Z" fill="#C15E0B"/>
<path d="M15.2871 16.547C15.1611 16.86 15.0291 17.166 14.8871 17.475C14.6781 17.909 14.4641 18.344 14.2561 18.775C14.2921 18.692 14.3332 18.61 14.3742 18.523C14.1592 18.966 13.9551 19.415 13.7451 19.862C13.4251 20.498 13.0702 21.114 12.7322 21.742C12.3942 22.37 12.0732 23.036 11.7582 23.695L11.8682 23.475C11.7562 23.702 11.6441 23.932 11.5331 24.159L11.5612 24.103C11.1846 24.7127 10.8643 25.3553 10.6042 26.023C10.5412 26.2119 10.549 26.4172 10.6262 26.6007C10.7035 26.7841 10.8449 26.9333 11.024 27.0202C11.2031 27.1071 11.4077 27.1259 11.5996 27.073C11.7916 27.0202 11.9578 26.8994 12.0672 26.733C12.3552 26.344 12.5852 25.918 12.8542 25.517C12.9882 25.317 13.1101 25.105 13.2301 24.889C13.3501 24.673 13.4852 24.483 13.6192 24.281C13.8742 23.888 14.0941 23.471 14.3131 23.06C14.7981 22.15 15.3702 21.285 15.8322 20.36C16.3542 19.326 16.8801 18.294 17.3141 17.219C17.4008 16.9495 17.3785 16.6567 17.252 16.4035C17.1254 16.1502 16.9047 15.9566 16.6371 15.864C16.5288 15.8279 16.4154 15.8093 16.3012 15.809C16.0776 15.8157 15.8612 15.8891 15.6796 16.0197C15.498 16.1503 15.3596 16.3322 15.2821 16.542L15.2871 16.547Z" fill="#C15E0B"/>
<path d="M8.64107 4.958C8.17957 5.17156 7.74737 5.44345 7.35506 5.76701C6.39198 6.48948 5.72535 7.5383 5.48006 8.717C5.39115 9.21544 5.41168 9.72726 5.54012 10.217C5.74377 10.9891 6.20528 11.6683 6.8481 12.142C7.05077 12.2999 7.27427 12.4291 7.51217 12.526C8.01687 12.7258 8.54579 12.858 9.08517 12.919C9.58654 12.988 10.0955 12.9789 10.5941 12.892C11.3457 12.7163 12.0404 12.3526 12.613 11.835C13.1856 11.3175 13.6175 10.663 13.8681 9.93301C13.9731 9.43469 13.971 8.91978 13.8623 8.42229C13.7535 7.92481 13.5405 7.45606 13.2371 7.047C12.9466 6.6393 12.6001 6.2744 12.2081 5.96301C12.0175 5.81024 11.8126 5.67629 11.5962 5.56301C11.3689 5.45116 11.1272 5.37107 10.8781 5.325C10.8397 5.24176 10.7888 5.16487 10.7271 5.09701C10.5529 4.9162 10.3184 4.80554 10.0681 4.786C9.92074 4.76095 9.7716 4.74857 9.62215 4.749C9.28516 4.74711 8.95135 4.81522 8.64205 4.94901L8.64107 4.958ZM10.4171 6.611C10.4481 6.61782 10.4795 6.62283 10.5111 6.626C10.5931 6.637 10.6741 6.648 10.7561 6.661C10.8981 6.69188 11.0373 6.7347 11.1721 6.78901C11.376 6.89541 11.5705 7.01919 11.7531 7.159C11.9635 7.35547 12.1559 7.57032 12.3281 7.801C12.4363 7.97942 12.5325 8.16483 12.616 8.35601C12.6878 8.58463 12.7407 8.81875 12.7741 9.05601C12.7799 9.25861 12.7685 9.46133 12.7401 9.66201C12.7081 9.78964 12.6683 9.91519 12.6211 10.038C12.5174 10.2362 12.3956 10.4244 12.2572 10.6C12.0811 10.79 11.8894 10.965 11.6842 11.123C11.4407 11.2838 11.1826 11.4211 10.9132 11.533C10.6899 11.6029 10.4605 11.6518 10.2281 11.679C9.89609 11.6757 9.56505 11.6422 9.2391 11.579C8.89728 11.5053 8.56264 11.4016 8.2391 11.269C8.07593 11.1765 7.92019 11.0715 7.77315 10.955C7.67315 10.85 7.5731 10.744 7.4731 10.63C7.37142 10.468 7.28279 10.2981 7.20809 10.122C7.1634 9.96763 7.13001 9.81022 7.10811 9.65101C7.10763 9.52008 7.11433 9.38922 7.12813 9.25901C7.17042 9.08353 7.22548 8.9114 7.29305 8.74401C7.43576 8.48108 7.60073 8.23083 7.78609 7.99601C8.15779 7.6179 8.56459 7.27603 9.00106 6.97501C9.16506 6.86764 9.33727 6.77333 9.51607 6.693C9.55607 6.682 9.59609 6.67401 9.63509 6.66601C9.74466 6.67095 9.85388 6.68229 9.96212 6.7C9.98809 6.70174 10.0142 6.70174 10.0401 6.7C10.1696 6.69685 10.2966 6.66473 10.4121 6.60601L10.4171 6.611ZM9.82516 6.64501H9.76913H9.82516ZM9.13412 6.883C9.10912 6.902 9.08516 6.919 9.05916 6.937L9.13412 6.883ZM12.5791 8.24601L12.6012 8.314C12.5932 8.291 12.5861 8.26801 12.5791 8.24601Z" fill="#C15E0B"/>
</svg>
