<svg width="23" height="25" viewBox="0 0 23 25" fill="none" xmlns="http://www.w3.org/2000/svg">
<path d="M10.1682 1.04601C9.66539 1.09361 9.16673 1.17783 8.67619 1.298C7.64313 1.55363 6.65345 1.96035 5.73918 2.505C3.9532 3.54925 2.47656 5.04903 1.46018 6.85101C0.475269 8.61091 -0.0279779 10.5995 0.00120033 12.616C0.0353355 14.5486 0.536953 16.4443 1.46324 18.1408C2.38952 19.8373 3.71288 21.2843 5.32017 22.358C6.17567 22.9178 7.10675 23.3525 8.08519 23.649C9.0344 23.9328 10.0168 24.0905 11.0072 24.118C13.0605 24.163 15.0853 23.6308 16.8512 22.582C18.0907 21.8347 19.1847 20.8691 20.0802 19.732C20.5281 19.1651 20.9158 18.5531 21.2372 17.906C21.55 17.3058 21.8006 16.6752 21.9851 16.024C22.1367 15.3695 22.2523 14.7072 22.3312 14.04C22.4332 13.4328 22.4821 12.8178 22.4772 12.202C22.4571 11.5438 22.3859 10.8882 22.2642 10.241C22.1742 9.67901 22.0642 9.12301 21.9182 8.57501C21.9056 8.42201 21.8598 8.27359 21.7842 8.14001C21.7793 8.12731 21.7729 8.11521 21.7652 8.104C21.6908 7.96087 21.598 7.82809 21.4892 7.70901C21.3539 7.5644 21.1836 7.45713 20.9948 7.39757C20.8059 7.33801 20.6049 7.32818 20.4112 7.36902C20.1708 7.42213 19.9549 7.55339 19.7972 7.74229C19.6394 7.93119 19.5486 8.16707 19.5392 8.41301C19.5371 8.57392 19.555 8.73445 19.5922 8.89101V8.91101L19.5982 8.93401C19.6191 9.02088 19.6507 9.10485 19.6922 9.18401C19.7752 9.34701 19.8592 9.48402 19.9372 9.64902C19.9912 9.76302 20.0372 9.886 20.0792 10.007L20.0722 9.99001C20.2525 10.5234 20.3716 11.0757 20.4272 11.636C20.4861 12.4138 20.4697 13.1954 20.3782 13.97C20.1815 14.7087 19.9222 15.4293 19.6032 16.124C19.2333 16.8571 18.7839 17.5472 18.2632 18.182C17.7401 18.7668 17.155 19.2929 16.5182 19.751C15.874 20.1714 15.19 20.5275 14.4762 20.814C13.6333 21.0996 12.7613 21.2904 11.8762 21.383C11.0172 21.4325 10.1554 21.391 9.30516 21.259C8.47726 21.085 7.67014 20.8239 6.8972 20.48C6.19197 20.1244 5.52541 19.6968 4.90818 19.204C4.33473 18.7026 3.81463 18.1433 3.35618 17.535C2.96591 16.9637 2.63742 16.3526 2.3762 15.712C2.09675 14.9227 1.90819 14.1041 1.81419 13.272C1.76003 12.4678 1.79998 11.66 1.93321 10.865C2.09457 10.0819 2.33998 9.31846 2.6652 8.58801C3.35816 7.14135 4.41886 5.90202 5.74119 4.99402C6.35252 4.59558 7.00286 4.26051 7.68217 3.99402C8.52213 3.70525 9.39197 3.51203 10.2752 3.41801C11.0771 3.3673 11.8822 3.40723 12.6752 3.53702C13.6802 3.76269 14.6593 4.09108 15.5971 4.51701L15.4442 4.44402C15.6132 4.52102 15.7832 4.59102 15.9502 4.66602C16.2168 4.81832 16.4724 4.98907 16.7152 5.17702C16.9663 5.33875 17.2713 5.39419 17.5632 5.33119C17.8552 5.26819 18.1102 5.0919 18.2722 4.84102C18.4301 4.58897 18.4834 4.28525 18.4209 3.99448C18.3583 3.7037 18.1848 3.44881 17.9372 3.28401C17.6122 3.04801 17.2722 2.83101 16.9492 2.59001L16.9872 2.62601C16.8728 2.52891 16.7515 2.44034 16.6242 2.36101C16.4242 2.24401 16.2242 2.13801 16.0322 2.03201C15.6304 1.82927 15.2139 1.65711 14.7862 1.51701C14.2701 1.34844 13.741 1.22301 13.2042 1.14201C12.7097 1.04881 12.2075 1.00227 11.7042 1.00301C11.5642 1.00901 11.4242 1.00901 11.2852 1.00301C11.1732 1.00301 11.0552 0.997009 10.9432 0.997009C10.6872 0.997009 10.4242 1.02401 10.1662 1.04701L10.1682 1.04601ZM10.4682 3.39902L10.3622 3.40901L10.4682 3.39902ZM3.8582 6.71501C3.8422 6.73501 3.82718 6.75402 3.80918 6.77202L3.8582 6.71501ZM19.5462 16.245L19.5132 16.319C19.5232 16.293 19.5342 16.269 19.5462 16.245ZM14.4462 20.824L14.2392 20.906C14.3082 20.877 14.3762 20.85 14.4462 20.824Z" fill="#C15E0B"/>
<path d="M10.2763 7.18403C9.47165 7.43133 8.72064 7.82752 8.06227 8.35203C7.84364 8.53937 7.65123 8.75531 7.49025 8.99403C7.44625 9.05803 7.39628 9.12302 7.35628 9.18902C7.31943 9.24112 7.28599 9.29558 7.25624 9.35203C7.19769 9.44797 7.16057 9.55542 7.14729 9.66703C7.10042 10.0387 7.15193 10.4162 7.29671 10.7617C7.44149 11.1073 7.67441 11.4088 7.97225 11.636C8.6322 12.1915 9.39456 12.6125 10.2163 12.875C11.2243 13.238 12.3033 13.375 13.2973 13.787C13.4224 13.8512 13.5416 13.9265 13.6533 14.012C13.6956 14.0542 13.7354 14.099 13.7723 14.146C13.7993 14.1894 13.8226 14.2349 13.8422 14.282C13.8606 14.343 13.8727 14.4056 13.8783 14.469V14.483L13.8713 14.406C13.8713 14.449 13.8713 14.492 13.8653 14.533C13.8384 14.638 13.805 14.7412 13.7653 14.842C13.7259 14.914 13.6825 14.9838 13.6353 15.051C13.5867 15.099 13.5356 15.1444 13.4823 15.187C13.2926 15.3066 13.0917 15.407 12.8823 15.487C12.5679 15.5814 12.245 15.6447 11.9183 15.676C11.3246 15.6949 10.7306 15.6507 10.1463 15.544C9.53228 15.4127 8.93539 15.2114 8.36727 14.944L8.16725 14.834C7.99615 14.7238 7.78876 14.6847 7.58925 14.725C7.44581 14.7583 7.31526 14.8329 7.21364 14.9394C7.11202 15.046 7.04375 15.1799 7.01729 15.3248C6.99083 15.4696 7.00733 15.6191 7.06471 15.7547C7.1221 15.8903 7.21789 16.0062 7.34029 16.088C7.62159 16.2674 7.91608 16.4252 8.22127 16.56C8.59089 16.7208 8.97635 16.8425 9.37129 16.923C10.1903 17.0844 11.0298 17.1148 11.8583 17.013C12.5369 16.9381 13.195 16.7345 13.7973 16.413C14.0932 16.2632 14.3559 16.055 14.5693 15.801C14.7481 15.5519 14.8833 15.2743 14.9693 14.98C15.0395 14.707 15.0477 14.4217 14.9932 14.145C14.9562 13.9882 14.8973 13.8374 14.8183 13.697C14.7454 13.5604 14.6535 13.4348 14.5452 13.324C14.3525 13.1195 14.121 12.9554 13.8643 12.841C13.519 12.6785 13.1586 12.5502 12.7883 12.458C11.9093 12.2483 11.0462 11.977 10.2053 11.646C9.77316 11.4243 9.36526 11.1582 8.98824 10.852C8.84571 10.7222 8.71431 10.5807 8.59529 10.429C8.62529 10.479 8.65526 10.523 8.68526 10.569C8.59829 10.4558 8.52573 10.3322 8.46926 10.201C8.45358 10.1455 8.44154 10.0891 8.43324 10.032C8.62791 9.8137 8.8414 9.61294 9.07124 9.43203C9.47109 9.16126 9.89294 8.92442 10.3323 8.72402C10.6028 8.63716 10.8805 8.57491 11.1622 8.53802C11.4786 8.52369 11.7956 8.53808 12.1093 8.58102C12.2568 8.61719 12.402 8.66193 12.5443 8.71502C12.6511 8.77961 12.7533 8.85146 12.8502 8.93003C12.9832 9.05603 13.1123 9.18602 13.2363 9.32302C13.3103 9.41129 13.4014 9.48374 13.5041 9.53605C13.6068 9.58835 13.7189 9.61945 13.8339 9.62746C13.9488 9.63548 14.0642 9.62027 14.1731 9.58273C14.2821 9.54518 14.3823 9.48608 14.4679 9.40894C14.5535 9.33181 14.6227 9.23822 14.6713 9.13377C14.72 9.02931 14.7471 8.91613 14.7511 8.80097C14.755 8.68581 14.7357 8.57104 14.6944 8.46349C14.653 8.35595 14.5904 8.25785 14.5103 8.17503C14.2869 7.93076 14.0419 7.70718 13.7783 7.50703C13.498 7.30821 13.1797 7.16931 12.8433 7.09902C12.5099 7.01916 12.1681 6.97987 11.8253 6.98202C11.3069 6.98617 10.7914 7.05915 10.2923 7.19903L10.2763 7.18403ZM9.17629 9.32803L9.07625 9.39802L9.17629 9.32803ZM8.41829 10.043C8.41829 10.087 8.41825 10.132 8.42525 10.179C8.42525 10.133 8.41829 10.088 8.41829 10.043ZM8.45528 10.205C8.47228 10.254 8.48627 10.299 8.50527 10.348C8.48583 10.3014 8.46915 10.2536 8.45528 10.205ZM13.5833 13.949L13.6163 13.98L13.5833 13.949ZM13.7172 14.073C13.7312 14.093 13.7443 14.113 13.7573 14.133C13.7433 14.114 13.7302 14.093 13.7172 14.073ZM13.8732 14.473C13.8747 14.5017 13.8747 14.5304 13.8732 14.559L13.8673 14.489V14.473H13.8732ZM8.42128 14.973L8.46425 14.996L8.42128 14.973ZM10.2213 15.561L10.3073 15.578L10.2213 15.561Z" fill="#C15E0B"/>
<path d="M10.3892 5.81001C10.3432 6.59101 10.3332 7.36701 10.3292 8.14401C10.3292 8.40701 10.3292 8.66602 10.3292 8.92902C10.3392 9.30802 10.3292 9.69002 10.3552 10.069C10.4042 10.769 10.4492 11.462 10.5092 12.153C10.5759 12.8937 10.6392 13.6343 10.6992 14.375C10.7502 15.265 10.7922 16.158 10.8122 17.054C10.8262 17.626 10.7862 18.202 10.8462 18.77C10.8707 18.8847 10.9256 18.9908 11.0052 19.077C11.0645 19.1435 11.1365 19.1975 11.2168 19.2362C11.2971 19.2748 11.3842 19.2971 11.4732 19.302C11.5612 19.3064 11.6493 19.2933 11.7322 19.2634C11.8151 19.2335 11.8912 19.1875 11.9562 19.128C12.0238 19.0697 12.0785 18.998 12.1169 18.9174C12.1553 18.8369 12.1765 18.7492 12.1792 18.66C12.1702 18.4706 12.1438 18.2825 12.1002 18.098C12.0682 17.948 12.0412 17.798 12.0232 17.652C11.9402 16.418 11.9342 15.184 11.8232 13.952C11.7532 13.237 11.6832 12.515 11.6082 11.798C11.5522 11.222 11.5082 10.65 11.4622 10.073C11.4422 9.44701 11.4152 8.825 11.4152 8.201C11.4152 7.42 11.4252 6.64501 11.4642 5.86801C11.47 5.72542 11.4196 5.58625 11.3239 5.48042C11.2281 5.37459 11.0947 5.31053 10.9522 5.302H10.9182C10.7817 5.30355 10.6508 5.35686 10.5521 5.45116C10.4533 5.54545 10.3941 5.6737 10.3862 5.81001H10.3892ZM12.0152 17.52L12.0242 17.62L12.0152 17.52Z" fill="#C15E0B"/>
</svg>
