<svg width="32" height="24" viewBox="0 0 32 24" fill="none" xmlns="http://www.w3.org/2000/svg">
<path d="M18.9 6.5L17.9 6.5L17.9 6.51851L17.9007 6.53701L18.9 6.5ZM20.8 1.99999L21.4877 2.72595L21.5079 2.70683L21.527 2.68662L20.8 1.99999ZM29.6 1.99999L30.3071 1.29289L30.3071 1.29289L29.6 1.99999ZM31.4 7.2L32.4 7.2L32.4 7.18571L32.3996 7.17144L31.4 7.2ZM28.4 17.7L29.2291 18.2591L29.2334 18.2527L29.2376 18.2463L28.4 17.7ZM19.7 23.8L19.17 24.648L19.5587 24.8909L19.9964 24.7551L19.7 23.8ZM18.9 23.3L18.2736 22.5205L17.1765 23.4021L18.37 24.148L18.9 23.3ZM25 12.7L25.9967 12.7817L26.0853 11.7L25 11.7L25 12.7ZM20.8 11L20.0929 11.7071L20.103 11.7172L20.1134 11.727L20.8 11ZM0.899998 6.5L-0.100002 6.5L-0.100002 6.5185L-0.0993153 6.53701L0.899998 6.5ZM2.7 1.99999L1.99289 1.29288L2.7 1.99999ZM11.5 1.99999L10.7929 2.7071L10.803 2.7172L10.8134 2.72701L11.5 1.99999ZM13.4 7.19999L14.4 7.19999L14.4 7.18571L14.3996 7.17144L13.4 7.19999ZM10.3 17.7L11.1291 18.2591L11.1293 18.2588L10.3 17.7ZM1.6 23.8L1.01876 24.6137L1.42252 24.9021L1.8964 24.7551L1.6 23.8ZM0.899997 23.3L0.266765 22.526L-0.745038 23.3539L0.318759 24.1137L0.899997 23.3ZM6.9 12.7L7.89666 12.7817L7.98532 11.7L6.9 11.7L6.9 12.7ZM2.7 11L1.97299 11.6866L2.00187 11.7172L2.03321 11.7452L2.7 11ZM19.9 6.5C19.9 4.9648 20.4274 3.73047 21.4877 2.72595L20.1123 1.27404C18.6392 2.66952 17.9 4.43519 17.9 6.5L19.9 6.5ZM21.527 2.68662C22.4532 1.70591 23.6475 1.2 25.2 1.2L25.2 -0.800002C23.1526 -0.800002 21.4134 -0.105922 20.073 1.31337L21.527 2.68662ZM25.2 1.2C26.6745 1.2 27.8849 1.69909 28.8929 2.7071L30.3071 1.29289C28.9151 -0.0990925 27.1922 -0.800001 25.2 -0.800002L25.2 1.2ZM28.8929 2.7071C29.7779 3.59208 30.3377 5.03499 30.4004 7.22856L32.3996 7.17144C32.3289 4.69834 31.6888 2.67458 30.3071 1.29289L28.8929 2.7071ZM30.4 7.2C30.4 10.9544 29.4485 14.2617 27.5624 17.1537L29.2376 18.2463C31.3515 15.0049 32.4 11.3122 32.4 7.2L30.4 7.2ZM27.5709 17.1409C25.7859 19.7876 23.0917 21.7004 19.4036 22.8449L19.9964 24.7551C24.0417 23.4996 27.1474 21.3457 29.2291 18.2591L27.5709 17.1409ZM20.23 22.952L19.43 22.452L18.37 24.148L19.17 24.648L20.23 22.952ZM19.5264 24.0795C23.4333 20.94 25.637 17.1696 25.9967 12.7817L24.0033 12.6183C23.6963 16.3637 21.8334 19.6599 18.2736 22.5205L19.5264 24.0795ZM25 11.7C23.6641 11.7 22.5075 11.2371 21.4866 10.273L20.1134 11.727C21.4925 13.0295 23.1359 13.7 25 13.7L25 11.7ZM21.5071 10.2929C20.4973 9.28304 19.9573 8.02773 19.8993 6.46298L17.9007 6.53701C17.9761 8.57226 18.7027 10.317 20.0929 11.7071L21.5071 10.2929ZM1.9 6.5C1.9 4.94736 2.4069 3.70731 3.40711 2.7071L1.99289 1.29288C0.593098 2.69268 -0.100002 4.45263 -0.100002 6.5L1.9 6.5ZM3.40711 2.7071C4.41513 1.69908 5.62553 1.2 7.1 1.2L7.1 -0.800003C5.10781 -0.800003 3.38488 -0.0990948 1.99289 1.29288L3.40711 2.7071ZM7.1 1.2C8.57448 1.2 9.78488 1.69909 10.7929 2.7071L12.2071 1.29289C10.8151 -0.0990941 9.09219 -0.800003 7.1 -0.800003L7.1 1.2ZM10.8134 2.72701C11.7526 3.61401 12.3381 5.04931 12.4004 7.22855L14.3996 7.17144C14.3285 4.68402 13.6474 2.65265 12.1866 1.27298L10.8134 2.72701ZM12.4 7.19999C12.4 10.9475 11.4189 14.2503 9.47073 17.1411L11.1293 18.2588C13.3144 15.0163 14.4 11.3191 14.4 7.19999L12.4 7.19999ZM9.47093 17.1409C7.68592 19.7876 4.99166 21.7004 1.3036 22.8449L1.8964 24.7551C5.94168 23.4996 9.04741 21.3457 11.1291 18.2591L9.47093 17.1409ZM2.18124 22.9863L1.48123 22.4863L0.318759 24.1137L1.01876 24.6137L2.18124 22.9863ZM1.53324 24.0739C5.37317 20.9322 7.53755 17.1628 7.89666 12.7817L5.90334 12.6183C5.59579 16.3705 3.76016 19.6678 0.266765 22.526L1.53324 24.0739ZM6.9 11.7C5.64003 11.7 4.47155 11.2432 3.36679 10.2548L2.03321 11.7452C3.46179 13.0234 5.0933 13.7 6.9 13.7L6.9 11.7ZM3.42701 10.3134C2.47594 9.30635 1.95789 8.04448 1.89931 6.46298L-0.0993153 6.53701C-0.024555 8.55551 0.657391 10.2936 1.97299 11.6866L3.42701 10.3134Z" fill="#C0B39D"/>
</svg>
