<svg width="32" height="24" viewBox="0 0 32 24" fill="none" xmlns="http://www.w3.org/2000/svg">
<path d="M13.1 17.5H14.1V17.4815L14.0993 17.463L13.1 17.5ZM11.2 22L10.5123 21.274L10.4921 21.2932L10.473 21.3134L11.2 22ZM2.4 22L1.69289 22.7071H1.6929L2.4 22ZM0.600002 16.8H-0.399998V16.8143L-0.39959 16.8286L0.600002 16.8ZM3.6 6.3L2.77093 5.74086L2.76661 5.74726L2.76239 5.75373L3.6 6.3ZM12.3 0.200001L12.83 -0.647999L12.4413 -0.890913L12.0036 -0.755064L12.3 0.200001ZM13.1 0.699999L13.7264 1.47951L14.8235 0.597923L13.63 -0.147999L13.1 0.699999ZM7.00001 11.3L6.00335 11.2183L5.91468 12.3H7.00001V11.3ZM11.2 13L11.9071 12.2929L11.897 12.2828L11.8866 12.273L11.2 13ZM31.1 17.5H32.1V17.4815L32.0993 17.463L31.1 17.5ZM29.3 22L30.0071 22.7071L29.3 22ZM20.5 22L21.2071 21.2929L21.197 21.2828L21.1866 21.273L20.5 22ZM18.6 16.8H17.6V16.8143L17.6004 16.8286L18.6 16.8ZM21.7 6.3L20.8709 5.74086L20.8707 5.74115L21.7 6.3ZM30.4 0.200001L30.9812 -0.613735L30.5775 -0.90213L30.1036 -0.755064L30.4 0.200001ZM31.1 0.699999L31.7332 1.47396L32.745 0.64612L31.6812 -0.113735L31.1 0.699999ZM25.1 11.3L24.1033 11.2183L24.0147 12.3H25.1V11.3ZM29.3 13L30.027 12.3134L29.9981 12.2828L29.9668 12.2548L29.3 13ZM12.1 17.5C12.1 19.0352 11.5726 20.2695 10.5123 21.274L11.8877 22.726C13.3608 21.3305 14.1 19.5648 14.1 17.5H12.1ZM10.473 21.3134C9.54677 22.2941 8.35255 22.8 6.8 22.8V24.8C8.84745 24.8 10.5866 24.1059 11.927 22.6866L10.473 21.3134ZM6.8 22.8C5.32553 22.8 4.11513 22.3009 3.10711 21.2929L1.6929 22.7071C3.08488 24.0991 4.80781 24.8 6.8 24.8V22.8ZM3.10711 21.2929C2.22214 20.4079 1.66227 18.965 1.59959 16.7714L-0.39959 16.8286C-0.32893 19.3017 0.311207 21.3254 1.69289 22.7071L3.10711 21.2929ZM1.60001 16.8C1.60001 13.0456 2.55153 9.73826 4.43761 6.84627L2.76239 5.75373C0.648476 8.99507 -0.399998 12.6878 -0.399998 16.8H1.60001ZM4.42907 6.85914C6.21409 4.2124 8.90835 2.29963 12.5964 1.15506L12.0036 -0.755064C7.95833 0.500364 4.85259 2.65426 2.77093 5.74086L4.42907 6.85914ZM11.77 1.048L12.57 1.548L13.63 -0.147999L12.83 -0.647999L11.77 1.048ZM12.4736 -0.0795097C8.56673 3.05994 6.36301 6.83037 6.00335 11.2183L7.99667 11.3817C8.30367 7.63629 10.1666 4.34005 13.7264 1.47951L12.4736 -0.0795097ZM7.00001 12.3C8.33586 12.3 9.49251 12.7629 10.5134 13.727L11.8866 12.273C10.5075 10.9705 8.86414 10.3 7.00001 10.3V12.3ZM10.4929 13.7071C11.5027 14.717 12.0427 15.9723 12.1007 17.537L14.0993 17.463C14.0239 15.4277 13.2973 13.683 11.9071 12.2929L10.4929 13.7071ZM30.1 17.5C30.1 19.0526 29.5931 20.2927 28.5929 21.2929L30.0071 22.7071C31.4069 21.3073 32.1 19.5474 32.1 17.5H30.1ZM28.5929 21.2929C27.5849 22.3009 26.3745 22.8 24.9 22.8V24.8C26.8922 24.8 28.6151 24.0991 30.0071 22.7071L28.5929 21.2929ZM24.9 22.8C23.4255 22.8 22.2151 22.3009 21.2071 21.2929L19.7929 22.7071C21.1849 24.0991 22.9078 24.8 24.9 24.8V22.8ZM21.1866 21.273C20.2475 20.386 19.6619 18.9507 19.5996 16.7714L17.6004 16.8286C17.6715 19.316 18.3526 21.3473 19.8134 22.727L21.1866 21.273ZM19.6 16.8C19.6 13.0525 20.5811 9.74967 22.5293 6.85885L20.8707 5.74115C18.6856 8.98367 17.6 12.6809 17.6 16.8H19.6ZM22.5291 6.85914C24.3141 4.2124 27.0083 2.29963 30.6964 1.15506L30.1036 -0.755064C26.0583 0.500364 22.9526 2.65426 20.8709 5.74086L22.5291 6.85914ZM29.8188 1.01373L30.5188 1.51373L31.6812 -0.113735L30.9812 -0.613735L29.8188 1.01373ZM30.4668 -0.0739574C26.6268 3.06781 24.4625 6.83714 24.1033 11.2183L26.0967 11.3817C26.4042 7.62952 28.2398 4.33219 31.7332 1.47396L30.4668 -0.0739574ZM25.1 12.3C26.36 12.3 27.5285 12.7568 28.6332 13.7452L29.9668 12.2548C28.5382 10.9766 26.9067 10.3 25.1 10.3V12.3ZM28.573 13.6866C29.5241 14.6936 30.0421 15.9555 30.1007 17.537L32.0993 17.463C32.0246 15.4445 31.3426 13.7064 30.027 12.3134L28.573 13.6866Z" fill="#C0B39D"/>
</svg>
