<svg width="62" height="65" viewBox="0 0 62 65" fill="none" xmlns="http://www.w3.org/2000/svg">
<path d="M13.2687 38.4915L3.80701 56.4388L5.74404 56.2243L14.6842 39.3495C14.1627 39.0635 13.7157 38.7775 13.2687 38.4915Z" fill="#3D4663"/>
<path d="M16.3158 62.3574L17.2356 64.0527L27.7368 44.1511C27.2003 44.0774 26.5871 44.0036 26.0505 43.9299L16.3158 62.3574Z" fill="#3D4663"/>
<path d="M14.9658 39.579L5.98254 56.847L12.816 55.946L16.1175 61.8772L25.5615 43.5581C21.7993 42.8824 18.1906 41.4559 14.9658 39.579Z" fill="#3D4663"/>
<path d="M37.5264 43.6332L46.7465 61.8772L49.9438 55.946L56.5615 56.847L47.9362 39.579C44.7389 41.4559 41.2442 42.8824 37.5264 43.6332Z" fill="#3D4663"/>
<path d="M48.4034 39.2809L57.3436 56.2232L59.2806 56.4386L49.7445 38.4912C49.2975 38.7784 48.8505 39.0655 48.4034 39.2809Z" fill="#3D4663"/>
<path d="M35.3508 44.2237L45.8521 64.0527L46.7719 62.3636L37.0372 43.9299C36.5006 44.0768 35.964 44.1503 35.3508 44.2237Z" fill="#3D4663"/>
<circle cx="31" cy="31" r="27" fill="#F7F7F7"/>
<path d="M33.4903 13.49C33.4903 13.49 33.3933 13.5191 33.3949 13.5531C33.3965 13.587 33.3949 14.3209 33.3949 14.3209C33.3949 14.3209 33.3804 14.3371 33.4353 14.3371C33.6423 14.316 33.8362 14.4373 33.9074 14.6313C33.9284 14.7509 33.9332 14.8705 33.9268 14.9917V18.4349H35.3509V12.7545H34.5055C34.2323 13.0794 33.8831 13.3316 33.4903 13.49Z" fill="url(#paint0_linear_527_4963)"/>
<path d="M30.7988 13.49C30.7988 13.49 30.7018 13.5191 30.7051 13.5531C30.7083 13.587 30.7051 14.3209 30.7051 14.3209C30.7051 14.3209 30.6905 14.3371 30.7439 14.3371C30.9508 14.3144 31.1447 14.4357 31.2159 14.6313C31.2369 14.7509 31.2434 14.8705 31.2353 14.9917V18.4349H32.6594V12.7545H31.814C31.5408 13.0794 31.1916 13.3316 30.7988 13.49Z" fill="url(#paint1_linear_527_4963)"/>
<path d="M28.109 13.49C28.109 13.49 28.0137 13.5191 28.0153 13.5531C28.0169 13.587 28.0153 14.3209 28.0153 14.3209C28.0153 14.3209 28.0007 14.3371 28.0557 14.3371C28.2626 14.316 28.4566 14.4373 28.5277 14.6313C28.5471 14.7509 28.5536 14.8705 28.5471 14.9917V18.4349H29.9712V12.7545H29.1258C28.8526 13.0794 28.5035 13.3316 28.109 13.49Z" fill="url(#paint2_linear_527_4963)"/>
<path d="M25.4192 13.4899C25.4192 13.4899 25.3222 13.5206 25.3238 13.5529C25.3254 13.5853 25.3238 14.3208 25.3238 14.3208C25.3238 14.3208 25.3093 14.3369 25.3659 14.3369C25.5711 14.3159 25.7651 14.4372 25.8362 14.6311C25.8573 14.7508 25.8637 14.8704 25.8556 14.9916V18.4347H27.2814V12.7544H26.436C26.1628 13.0793 25.8136 13.3315 25.4192 13.4899Z" fill="url(#paint3_linear_527_4963)"/>
<path d="M21.8701 33.886C21.7881 34.6858 21.7778 35.4446 21.8394 36.1624L21.7163 36.3059C19.8364 36.2307 18.2983 36.1931 17.1021 36.1931C15.8511 36.1931 14.3677 36.2273 12.6519 36.2957L12.5186 36.1726V35.2395L14.6104 33.1067C16.1758 31.5139 17.1978 30.304 17.6763 29.4768C17.9565 28.9915 18.1548 28.5505 18.271 28.1541C18.3872 27.7507 18.4453 27.3235 18.4453 26.8723C18.4453 25.2385 17.6968 24.4216 16.1997 24.4216C15.3657 24.4216 14.7026 24.7395 14.2104 25.3752C14.1353 25.6692 14.002 26.1819 13.8105 26.9133L13.6978 27.0159H13.1133L13.0107 26.9133L13.3901 23.4885C14.2515 22.6272 15.4512 22.1965 16.9893 22.1965C18.3633 22.1965 19.4229 22.5554 20.168 23.2732C20.8584 23.9294 21.2036 24.801 21.2036 25.8879C21.2036 26.3323 21.1523 26.7424 21.0498 27.1184C20.8379 27.884 20.4038 28.6565 19.7476 29.4358C19.2007 30.0852 18.3735 30.9397 17.2661 31.9993C16.8628 32.3958 16.251 32.9802 15.4307 33.7527L15.4512 33.886H17.2661C17.7925 33.886 18.2915 33.8792 18.7632 33.8655L20.5371 33.8142C20.9883 33.8005 21.3813 33.78 21.7163 33.7527L21.8701 33.886ZM31.2483 28.7693C31.2483 31.449 30.9134 33.3665 30.2435 34.5217C29.4231 35.9368 28.1824 36.6443 26.5213 36.6443C24.9148 36.6443 23.7425 36.0222 23.0042 34.7781C22.3958 33.7527 22.0916 32.0505 22.0916 29.6716C22.0916 27.7986 22.2762 26.3289 22.6453 25.2625C22.9803 24.2781 23.5203 23.5125 24.2654 22.9656C24.9764 22.446 25.824 22.1863 26.8084 22.1863C28.3465 22.1863 29.4539 22.6511 30.1307 23.5808C30.8758 24.5994 31.2483 26.3289 31.2483 28.7693ZM28.7156 30.4509C28.7156 27.7781 28.5242 25.8606 28.1414 24.6985C27.8338 23.7688 27.304 23.304 26.5521 23.304C25.8548 23.304 25.3592 23.6594 25.0652 24.3704C24.7508 25.1223 24.5936 26.4075 24.5936 28.2258C24.5936 30.509 24.7303 32.2522 25.0037 33.4553C25.1336 34.0295 25.2703 34.4431 25.4139 34.696C25.7488 35.2839 26.2068 35.5779 26.7879 35.5779C27.7723 35.5779 28.3636 34.8191 28.5618 33.3015C28.6644 32.5085 28.7156 31.5583 28.7156 30.4509ZM40.7701 33.886C40.6881 34.6858 40.6778 35.4446 40.7394 36.1624L40.6163 36.3059C38.7364 36.2307 37.1983 36.1931 36.0021 36.1931C34.7511 36.1931 33.2677 36.2273 31.5519 36.2957L31.4186 36.1726V35.2395L33.5104 33.1067C35.0758 31.5139 36.0978 30.304 36.5763 29.4768C36.8565 28.9915 37.0548 28.5505 37.171 28.1541C37.2872 27.7507 37.3453 27.3235 37.3453 26.8723C37.3453 25.2385 36.5968 24.4216 35.0997 24.4216C34.2657 24.4216 33.6026 24.7395 33.1104 25.3752C33.0353 25.6692 32.902 26.1819 32.7105 26.9133L32.5978 27.0159H32.0133L31.9107 26.9133L32.2901 23.4885C33.1515 22.6272 34.3512 22.1965 35.8893 22.1965C37.2633 22.1965 38.3229 22.5554 39.068 23.2732C39.7584 23.9294 40.1036 24.801 40.1036 25.8879C40.1036 26.3323 40.0523 26.7424 39.9498 27.1184C39.7379 27.884 39.3038 28.6565 38.6476 29.4358C38.1007 30.0852 37.2735 30.9397 36.1661 31.9993C35.7628 32.3958 35.151 32.9802 34.3307 33.7527L34.3512 33.886H36.1661C36.6925 33.886 37.1915 33.8792 37.6632 33.8655L39.4371 33.8142C39.8883 33.8005 40.2813 33.78 40.6163 33.7527L40.7701 33.886ZM49.892 36.1624L49.7792 36.2854C48.8222 36.2239 47.6532 36.1931 46.2724 36.1931C44.9257 36.1931 43.5072 36.2239 42.017 36.2854L41.9042 36.1726V35.5471L42.0272 35.4446C42.3759 35.4036 42.7143 35.3694 43.0424 35.342C43.6303 35.2942 44.0063 35.2361 44.1703 35.1677C44.2865 35.113 44.3856 34.9866 44.4677 34.7883C44.5976 34.467 44.6625 33.1682 44.6625 30.8918V28.3386C44.6625 27.573 44.6488 26.6023 44.6215 25.4265L44.601 24.6575C44.601 24.3157 44.5292 24.1448 44.3856 24.1448C44.3241 24.1448 44.1225 24.2234 43.7807 24.3806C42.8441 24.8113 42.0409 25.1907 41.371 25.5188L41.2479 25.447C41.2069 25.0574 41.1352 24.6233 41.0326 24.1448L41.0429 24.0627C42.9296 23.5295 45.0385 22.8152 47.3695 21.9197L47.5849 22.0735C47.5575 22.4768 47.5199 23.075 47.4721 23.8679C47.4516 24.1687 47.4311 24.9753 47.4105 26.2878L47.3798 30.3176C47.3798 33.2024 47.4276 34.7507 47.5233 34.9626C47.5917 35.1199 47.6942 35.2156 47.831 35.2498C48.0771 35.3181 48.7196 35.3796 49.7587 35.4343L49.892 35.5369V36.1624Z" fill="#3D4663"/>
<path d="M62 30.9662C62 29.4787 61.1887 28.0589 60.3773 26.7067C59.7688 25.6925 59.1603 24.6107 58.8899 23.5289C58.687 22.8528 58.6194 22.1767 58.6194 21.5005C58.6194 21.1625 58.6194 20.7568 58.6194 20.4188C58.6194 20.2159 58.6194 20.0807 58.6194 19.8779C58.6194 19.4722 58.6194 18.9989 58.6194 18.5932C58.5518 17.4438 58.4166 16.362 57.9433 15.4831C57.2672 14.2661 55.9149 13.4547 54.4275 12.6434C53.3457 12.0349 52.2639 11.4264 51.4526 10.5474C50.6412 9.66848 49.9651 8.65431 49.3566 7.57252C48.5453 6.15267 47.7339 4.80044 46.5169 4.05671C45.2999 3.38059 43.7448 3.38059 42.1221 3.38059C40.9051 3.38059 39.6205 3.38059 38.4711 3.04253C37.3893 2.77208 36.3075 2.16358 35.2934 1.55507C33.8735 0.811341 32.4537 0 30.9662 0C29.4787 0 28.1265 0.811341 26.7067 1.62268C25.6925 2.23119 24.6107 2.83969 23.5289 3.11014C22.3795 3.4482 21.0949 3.4482 19.8779 3.4482C18.2552 3.4482 16.7001 3.4482 15.4831 4.12432C14.2661 4.80044 13.4547 6.15267 12.6434 7.64013C12.0349 8.72192 11.4264 9.80371 10.5474 10.615C9.7361 11.4264 8.65431 12.1025 7.57252 12.711C6.15267 13.5224 4.80044 14.3337 4.05671 15.5507C3.51581 16.4297 3.38059 17.5114 3.38059 18.6609C3.38059 19.0665 3.38059 19.4722 3.38059 19.9455C3.38059 20.1483 3.38059 20.2835 3.38059 20.4864C3.38059 20.8244 3.38059 21.2301 3.38059 21.5682C3.31298 22.2443 3.24537 22.988 3.11014 23.5965C2.83969 24.6783 2.23119 25.7601 1.62268 26.7743C0.811341 28.1941 0 29.5463 0 30.9662C0 32.4537 0.811341 33.8735 1.62268 35.2257C2.23119 36.2399 2.83969 37.3217 3.11014 38.4035C3.31298 39.0796 3.38059 39.7557 3.38059 40.4318C3.38059 40.7699 3.38059 41.1756 3.38059 41.5136C3.38059 41.7165 3.38059 41.8517 3.38059 42.0545C3.38059 42.4602 3.38059 42.9335 3.38059 43.3391C3.4482 44.4885 3.58342 45.5703 4.05671 46.4493C4.73282 47.6663 6.08506 48.4776 7.57252 49.289C8.65431 49.8975 9.7361 50.506 10.5474 51.385C11.3588 52.1963 12.0349 53.2781 12.6434 54.3599C13.4547 55.7797 14.2661 57.132 15.4831 57.8757C16.7001 58.5518 18.2552 58.5518 19.8779 58.5518C21.0949 58.5518 22.3795 58.5518 23.5289 58.8899C24.6107 59.1603 25.6925 59.7688 26.7067 60.3773C28.1265 61.1887 29.5463 62 30.9662 62C32.4537 62 33.8735 61.1887 35.2257 60.3773C36.2399 59.7688 37.3217 59.1603 38.4035 58.8899C39.5529 58.5518 40.8375 58.5518 42.0545 58.5518C43.6772 58.5518 45.2323 58.5518 46.4493 57.8757C47.6663 57.1996 48.4776 55.8473 49.289 54.3599C49.8975 53.2781 50.506 52.1963 51.385 51.385C52.1963 50.5736 53.2781 49.8975 54.3599 49.289C55.7797 48.4776 57.132 47.6663 57.8757 46.4493C58.4166 45.5703 58.5518 44.4885 58.5518 43.3391C58.5518 42.9335 58.5518 42.4602 58.5518 42.0545C58.5518 41.8517 58.5518 41.7165 58.5518 41.5136C58.5518 41.1756 58.5518 40.7699 58.5518 40.4318C58.6194 39.7557 58.687 39.012 58.8222 38.4035C59.0927 37.3217 59.7012 36.2399 60.3097 35.2257C61.1887 33.8735 62 32.4537 62 30.9662ZM54.7655 41.5812C54.4951 42.1898 54.2246 42.7983 53.8866 43.4068C49.4918 51.5202 40.8375 57.0643 30.9662 57.0643C21.0949 57.0643 12.5082 51.5202 8.0458 43.4068C7.70774 42.7983 7.4373 42.1898 7.16685 41.5812C7.03163 41.2432 6.82879 40.8375 6.69357 40.4995C5.54417 37.5245 4.86805 34.3468 4.86805 30.9662C4.86805 27.5856 5.54417 24.4079 6.69357 21.4329C6.82879 21.0949 6.96401 20.6892 7.16685 20.3511C7.4373 19.7426 7.70774 19.1341 8.0458 18.5256C12.4406 10.4122 21.0949 4.86805 30.9662 4.86805C40.8375 4.86805 49.4242 10.4122 53.8866 18.5256C54.2246 19.1341 54.4951 19.7426 54.7655 20.3511C54.9008 20.6892 55.1036 21.0949 55.2388 21.4329C56.3882 24.4079 57.0643 27.5856 57.0643 30.9662C57.0643 34.3468 56.3882 37.5245 55.2388 40.4995C55.1036 40.9051 54.9684 41.2432 54.7655 41.5812Z" fill="url(#paint4_linear_527_4963)"/>
<path d="M53.5485 21.2901C53.4133 20.952 53.2105 20.5464 53.0752 20.2083C52.8048 19.5998 52.4667 18.9913 52.1287 18.3828C47.8015 11.1483 39.9586 6.28027 30.9662 6.28027C21.9738 6.28027 14.1309 11.1483 9.87131 18.3828C9.53325 18.9913 9.19519 19.5998 8.92475 20.2083C8.72191 20.5464 8.58669 20.952 8.45146 21.2901C7.23445 24.1974 6.49072 27.4428 6.49072 30.8234C6.49072 34.2039 7.16684 37.4493 8.45146 40.3566C8.58669 40.6947 8.78952 41.1003 8.92475 41.4384C9.19519 42.0469 9.53325 42.6554 9.87131 43.2639C14.1985 50.4308 22.0414 55.2988 30.9662 55.2988C39.9586 55.2988 47.8015 50.4308 52.0611 43.1963C52.3991 42.5878 52.7372 41.9793 53.0076 41.3708C53.2105 41.0327 53.3457 40.6271 53.4809 40.289C54.6979 37.3817 55.4417 34.1363 55.4417 30.7557C55.5093 27.4428 54.7655 24.1974 53.5485 21.2901ZM51.8582 40.289C51.723 40.6271 51.5202 41.0327 51.3173 41.3708C50.9793 41.9793 50.6412 42.5878 50.2355 43.1963C46.1788 49.5518 39.0796 53.7437 30.9662 53.7437C22.8528 53.7437 15.8211 49.5518 11.6968 43.1963C11.2912 42.5878 10.9531 41.9793 10.615 41.3708C10.4122 41.0327 10.277 40.6271 10.0741 40.289C8.72191 37.3817 7.97818 34.1363 7.97818 30.7557C7.97818 27.3751 8.72191 24.1298 10.0741 21.2225C10.2094 20.8844 10.4122 20.4787 10.615 20.1407C10.9531 19.5322 11.2912 18.9237 11.6968 18.3152C15.7535 11.9597 22.8528 7.76773 30.9662 7.76773C39.0796 7.76773 46.1112 11.9597 50.2355 18.3152C50.6412 18.9237 50.9793 19.5322 51.3173 20.1407C51.5202 20.4787 51.6554 20.8844 51.8582 21.2225C53.2105 24.1298 53.9542 27.3751 53.9542 30.7557C53.8866 34.2039 53.1429 37.3817 51.8582 40.289Z" fill="#959595"/>
<path d="M44.5966 42.5388H48.4036" stroke="#3D4663" stroke-width="0.431337"/>
<line x1="13.5966" y1="42.5388" x2="17.4036" y2="42.5388" stroke="#3D4663" stroke-width="0.431337"/>
<path d="M30.6169 40.1899H27.7029C27.529 40.1899 27.3879 40.3306 27.3879 40.504C27.3879 40.6774 27.529 40.8181 27.7029 40.8181H30.6169C30.7909 40.8181 30.9319 40.6774 30.9319 40.504C30.9319 40.3306 30.7909 40.1899 30.6169 40.1899Z" fill="#3D4663"/>
<path d="M43.0245 44.5129V43.9603C43.0245 43.9382 43.0079 43.9216 42.9858 43.9216H40.6299V43.5071H42.4664C42.4866 43.5071 42.505 43.4906 42.505 43.4685V42.9159C42.505 42.8938 42.4885 42.8772 42.4664 42.8772H40.6299V42.6911H42.715C42.7371 42.6911 42.7537 42.6746 42.7537 42.6525V42.0999C42.7537 42.0778 42.7371 42.0612 42.715 42.0612H41.6283L41.9082 41.6412H42.8495C42.8716 41.6412 42.8882 41.6246 42.8882 41.6025V41.0499C42.8882 41.0297 42.8716 41.0113 42.8495 41.0113H42.3816L42.8476 40.315C42.8587 40.2966 42.8532 40.2726 42.8347 40.2616C42.8292 40.2579 42.8219 40.256 42.8145 40.256H41.9064C41.8935 40.256 41.8824 40.2616 41.8751 40.2726L41.4275 40.9413V40.6097C41.4275 40.2726 41.1549 40 40.8178 40H40.6999C40.4439 40 40.2154 40.1603 40.1289 40.3997C40.1676 40.3629 40.2191 40.3408 40.2744 40.3408H40.2781C40.3941 40.3408 40.4881 40.4347 40.4881 40.5508V41.0094H39.9465V40.2137C39.9465 40.1916 39.9299 40.175 39.9078 40.175H39.0458C39.0237 40.175 39.0071 40.1916 39.0071 40.2137V40.9026L38.5853 40.2708C38.5779 40.2597 38.5669 40.2542 38.554 40.2542H37.6477C37.6256 40.2542 37.609 40.2726 37.609 40.2929C37.609 40.3002 37.6109 40.3076 37.6146 40.3131L38.0806 41.0094H37.469C37.4488 41.0094 37.4304 41.026 37.4304 41.0481V41.6007C37.4304 41.6228 37.4469 41.6394 37.469 41.6394H38.4232L38.705 42.0593H37.6054C37.5851 42.0593 37.5667 42.0759 37.5667 42.098V42.6506C37.5667 42.6709 37.5832 42.6893 37.6054 42.6893H39.6905V42.8753H37.854C37.8338 42.8753 37.8153 42.8919 37.8153 42.914V43.4666C37.8153 43.4887 37.8319 43.5053 37.854 43.5053H39.6905V43.9179H37.3346C37.3143 43.9179 37.2959 43.9345 37.2959 43.9566V44.5092C37.2959 44.5313 37.3125 44.5479 37.3346 44.5479H39.6905V45.8115C39.6905 45.8336 39.7071 45.8501 39.7292 45.8501H40.5912C40.6115 45.8501 40.6299 45.8336 40.6299 45.8115V44.5479H42.9858C43.0061 44.5479 43.0245 44.5313 43.0245 44.5092V44.5129ZM39.4252 41.6431H40.9099L40.6299 42.063H39.7071L39.4252 41.6431Z" fill="#3D4663"/>
<path d="M28.8431 42.9397C28.6165 42.9397 28.4341 43.1221 28.4341 43.3486V43.4278C28.4341 43.5991 28.541 43.7539 28.7031 43.8128C28.6791 43.787 28.6644 43.752 28.6644 43.7152C28.6644 43.6433 28.7141 43.5844 28.7823 43.5733V44.0265H28.3199V42.9784C28.3199 42.9563 28.3034 42.9397 28.2813 42.9397H27.5371C27.515 42.9397 27.4984 42.9563 27.4984 42.9784V45.2809C27.4984 45.5958 27.7545 45.8519 28.0694 45.8519H30.313C30.6279 45.8519 30.884 45.5958 30.884 45.2809V43.5126C30.884 43.1976 30.6279 42.9415 30.313 42.9415H28.8412L28.8431 42.9397ZM28.3199 44.6527H28.7823V45.2219H28.3199V44.6527ZM30.0643 45.2219H29.602V44.6527H30.0643V45.2219ZM30.0643 44.0246H29.602V43.5678H30.0643V44.0246Z" fill="#3D4663"/>
<path d="M24.7501 41.7609H22.4311V41.2507H24.437C24.4591 41.2507 24.4757 41.2341 24.4757 41.212V40.6594C24.4757 40.6373 24.4591 40.6207 24.437 40.6207H22.4311V40.6115C22.4311 40.2744 22.1585 40.0018 21.8214 40.0018H21.7053C21.4493 40.0018 21.2209 40.1621 21.1343 40.4015C21.173 40.3647 21.2246 40.3426 21.278 40.3426H21.2817C21.3977 40.3426 21.4917 40.4365 21.4917 40.5526V40.6189H19.4047C19.3826 40.6189 19.366 40.6355 19.366 40.6576V41.2102C19.366 41.2323 19.3826 41.2489 19.4047 41.2489H21.4917V41.7591H19.0915C19.0694 41.7591 19.0529 41.7757 19.0529 41.7978V42.3504C19.0529 42.3725 19.0694 42.389 19.0915 42.389H20.4104L20.8967 43.1166H19.4028C19.3807 43.1166 19.3642 43.1332 19.3642 43.1553V43.7061C19.3642 43.7282 19.3807 43.7447 19.4028 43.7447H21.4898V44.2366H19.0897C19.0676 44.2366 19.051 44.2531 19.051 44.2752V44.8278C19.051 44.8499 19.0676 44.8665 19.0897 44.8665H21.4898V45.8151C21.4898 45.8372 21.5064 45.8538 21.5285 45.8538H22.3905C22.4127 45.8538 22.4292 45.8372 22.4292 45.8151V44.8647H24.7464C24.7685 44.8647 24.7851 44.8481 24.7851 44.826V44.2734C24.7851 44.2513 24.7685 44.2347 24.7464 44.2347H22.4274V43.7447H24.4333C24.4554 43.7447 24.472 43.7282 24.472 43.7061V43.1535C24.472 43.1314 24.4554 43.1148 24.4333 43.1148H22.9818L23.4681 42.3872H24.7464C24.7685 42.3872 24.7851 42.3706 24.7851 42.3485V41.7959C24.7851 41.7738 24.7667 41.7572 24.7464 41.7572L24.7501 41.7609ZM22.2579 43.1185H21.6243L21.138 42.3909H22.7442L22.2579 43.1185Z" fill="#3D4663"/>
<path d="M33.6948 40.1862C33.4682 40.1862 33.2859 40.3704 33.2859 40.5969V40.6761C33.2859 40.8474 33.3927 41.0022 33.5548 41.0611C33.5309 41.0353 33.5161 41.0003 33.5161 40.9635C33.5161 40.8824 33.5788 40.8198 33.658 40.8198H34.8755C34.94 40.818 35.0008 40.8511 35.0376 40.9064L36.0304 42.4629C36.0378 42.4739 36.0489 42.4813 36.0636 42.4813H37.097C37.1191 42.4813 37.1356 42.4629 37.1338 42.4426C37.1338 42.4352 37.132 42.4297 37.1283 42.4242L35.872 40.4551C35.767 40.2912 35.5847 40.1917 35.3894 40.1917H33.6948V40.1862Z" fill="#3D4663"/>
<path d="M34.6508 43.6122H36.6328C36.6549 43.6122 36.6715 43.5956 36.6715 43.5735V43.0209C36.6715 42.9988 36.6549 42.9823 36.6328 42.9823H34.6508V42.2012C34.6508 41.8642 34.3782 41.5916 34.0412 41.5916H33.9233C33.6617 41.6376 33.4315 41.7886 33.2841 42.0097C33.3209 41.9747 33.4388 41.9821 33.4959 41.9821H33.4996C33.6157 41.9821 33.7096 42.0263 33.7096 42.1423V45.2203H32.6376V42.8625C32.6376 42.8404 32.621 42.8238 32.5989 42.8238H31.7368C31.7166 42.8238 31.6981 42.8404 31.6981 42.8625V45.2203H31.28C31.2579 45.2203 31.2413 45.2368 31.2413 45.2589V45.8115C31.2413 45.8336 31.2579 45.8502 31.28 45.8502H36.9257C36.9478 45.8502 36.9644 45.8336 36.9644 45.8115V45.2589C36.9644 45.2368 36.9478 45.2203 36.9257 45.2203H34.6472V43.6104L34.6508 43.6122Z" fill="#3D4663"/>
<path d="M27.6771 41.0039V42.0428C27.6771 42.3578 27.9332 42.6138 28.2481 42.6138H30.0607C30.3756 42.6138 30.6317 42.3578 30.6317 42.0428V41.5362C30.6317 41.2212 30.3756 40.9652 30.0607 40.9652H29.0218C28.7952 40.9652 28.6129 41.1476 28.6129 41.3741V41.4533C28.6129 41.6246 28.7197 41.7794 28.8818 41.8383C28.856 41.8125 28.8431 41.7775 28.8431 41.7407V41.737C28.8431 41.6596 28.9057 41.597 28.9849 41.597H29.8138V41.9875H28.5005V41.0039C28.5005 40.9818 28.4839 40.9652 28.4618 40.9652H27.7176C27.6955 40.9652 27.679 40.9818 27.679 41.0039H27.6771Z" fill="#3D4663"/>
<path d="M27.2793 41.3465V41.341C27.2793 41.0499 27.0435 40.8141 26.7525 40.8141H26.6714V40.6115C26.6714 40.2744 26.3988 40.0018 26.0636 40.0018H25.9457C25.6896 40.0018 25.4612 40.1621 25.3747 40.4015C25.4133 40.3647 25.4649 40.3426 25.5202 40.3426H25.5239C25.6399 40.3426 25.7338 40.4365 25.732 40.5526V40.8123H25.137C25.1149 40.8123 25.0984 40.8289 25.0984 40.851V41.4036C25.0984 41.4257 25.1149 41.4423 25.137 41.4423H26.2975C26.3196 41.4423 26.3362 41.4607 26.3362 41.4809C26.3362 41.4865 26.3362 41.4902 26.3325 41.4957C26.1225 41.9654 25.8646 42.4111 25.5625 42.8274H25.5533V42.8385C25.3876 43.0651 25.2089 43.2787 25.0173 43.4813C25.0026 43.4979 25.0044 43.5219 25.021 43.5366C25.0284 43.5421 25.0357 43.5458 25.0449 43.5458H25.5552V45.8115C25.5552 45.8336 25.5718 45.8501 25.5939 45.8501H26.4559C26.478 45.8501 26.4946 45.8336 26.4946 45.8115V42.9066C26.793 42.4756 27.0435 42.0151 27.2443 41.5288C27.2682 41.4699 27.2811 41.4054 27.2811 41.3428L27.2793 41.3465Z" fill="#3D4663"/>
<path d="M33.1386 40.1805H32.2158C32.1992 40.1805 32.1845 40.1898 32.1789 40.2063C31.9266 40.9708 31.5932 41.7057 31.1843 42.3983C31.1732 42.4167 31.1806 42.4407 31.199 42.4517C31.2045 42.4554 31.2101 42.4572 31.2174 42.4572H32.2379C32.2508 42.4572 32.2637 42.4499 32.271 42.4388C32.6726 41.7481 32.9765 41.0039 33.1755 40.2303C33.181 40.21 33.1681 40.1898 33.146 40.1842C33.1441 40.1842 33.1405 40.1842 33.1386 40.1842H33.1405L33.1386 40.1805Z" fill="#3D4663"/>
<path d="M27.2149 42.8789H26.6346C26.6144 42.8789 26.5978 42.8955 26.5959 42.9157C26.5959 43.3062 26.607 44.1351 26.6807 44.8314C26.6825 44.8517 26.6991 44.8646 26.7194 44.8646H27.3843C27.4046 44.8646 27.4212 44.8498 27.423 44.8296C27.423 44.8259 27.423 44.824 27.423 44.8204C27.3125 44.1922 27.2554 43.5549 27.2535 42.9176C27.2535 42.8973 27.2351 42.8789 27.2149 42.8789Z" fill="#3D4663"/>
<path d="M42.12 44.6547H41.0921C41.0719 44.6547 41.0535 44.6731 41.0535 44.6933C41.0535 44.7007 41.0553 44.7099 41.0608 44.7154L41.8603 45.7875C41.8676 45.7967 41.8787 45.8022 41.8916 45.8022H43.0723C43.0944 45.8022 43.111 45.7838 43.1091 45.7617C43.1091 45.7525 43.1054 45.7433 43.0999 45.7378C42.7186 45.3344 42.3263 44.8775 42.1494 44.6676C42.1421 44.6583 42.131 44.6547 42.12 44.6547Z" fill="#3D4663"/>
<path d="M37.2885 45.8022H38.4692C38.4803 45.8022 38.4932 45.7967 38.5006 45.7875L39.3 44.7154C39.3129 44.6989 39.3092 44.6749 39.2908 44.662C39.2853 44.6583 39.276 44.6547 39.2687 44.6547H38.2408C38.2298 44.6547 38.2187 44.6583 38.2114 44.6676C38.0345 44.8775 37.644 45.3344 37.2609 45.7378C37.2462 45.7525 37.248 45.7783 37.2627 45.7912C37.2701 45.7985 37.2793 45.8022 37.2885 45.8022Z" fill="#3D4663"/>
<defs>
<linearGradient id="paint0_linear_527_4963" x1="34.3406" y1="18.2797" x2="34.3406" y2="12.5993" gradientUnits="userSpaceOnUse">
<stop stop-color="#D01F26"/>
<stop offset="0.2" stop-color="#DC1E25"/>
<stop offset="0.58" stop-color="#ED1B23"/>
<stop offset="0.95" stop-color="#ED1F23"/>
</linearGradient>
<linearGradient id="paint1_linear_527_4963" x1="31.7852" y1="2497.75" x2="31.7852" y2="2497.75" gradientUnits="userSpaceOnUse">
<stop stop-color="#D01F26"/>
<stop offset="0.2" stop-color="#DC1E25"/>
<stop offset="0.58" stop-color="#ED1B23"/>
<stop offset="0.95" stop-color="#ED1F23"/>
</linearGradient>
<linearGradient id="paint2_linear_527_4963" x1="29.0885" y1="2497.75" x2="29.0885" y2="2497.75" gradientUnits="userSpaceOnUse">
<stop stop-color="#D01F26"/>
<stop offset="0.2" stop-color="#DC1E25"/>
<stop offset="0.58" stop-color="#ED1B23"/>
<stop offset="0.95" stop-color="#ED1F23"/>
</linearGradient>
<linearGradient id="paint3_linear_527_4963" x1="26.2609" y1="2497.75" x2="26.2609" y2="2497.75" gradientUnits="userSpaceOnUse">
<stop stop-color="#D01F26"/>
<stop offset="0.2" stop-color="#DC1E25"/>
<stop offset="0.58" stop-color="#ED1B23"/>
<stop offset="0.95" stop-color="#ED1F23"/>
</linearGradient>
<linearGradient id="paint4_linear_527_4963" x1="31" y1="0" x2="31" y2="62" gradientUnits="userSpaceOnUse">
<stop stop-color="#959595"/>
<stop offset="0.338542" stop-color="#C0C0C0"/>
<stop offset="0.734375" stop-color="#959595"/>
</linearGradient>
</defs>
</svg>
