<svg width="29" height="18" viewBox="0 0 29 18" fill="none" xmlns="http://www.w3.org/2000/svg">
<path d="M15 18C12.8564 17.9848 10.7392 17.5247 8.78255 16.6489C6.8259 15.7731 5.07239 14.5006 3.63301 12.912C3.452 12.7175 3.35568 12.459 3.36525 12.1934C3.37481 11.9279 3.48948 11.677 3.68401 11.496C3.87855 11.315 4.13702 11.2187 4.40257 11.2282C4.66813 11.2378 4.919 11.3525 5.10001 11.547C6.35216 12.934 7.87859 14.0459 9.58271 14.8124C11.2868 15.5789 13.1315 15.9833 15 16C17.4105 15.957 19.7685 15.2894 21.8438 14.0625C23.919 12.8355 25.6405 11.0912 26.84 9C25.6407 6.90863 23.9192 5.16422 21.8439 3.93727C19.7686 2.71032 17.4105 2.04281 15 2C12.4928 2.04999 10.0449 2.77154 7.9114 4.08944C5.77792 5.40734 4.03698 7.27336 2.87001 9.493C2.80579 9.60824 2.71941 9.70963 2.61583 9.79133C2.51226 9.87304 2.39354 9.93344 2.26652 9.96907C2.13949 10.0047 2.00668 10.0148 1.87572 9.99889C1.74476 9.98296 1.61825 9.94128 1.50348 9.87624C1.3887 9.8112 1.28793 9.72409 1.20697 9.61993C1.126 9.51578 1.06645 9.39663 1.03173 9.26936C0.997019 9.14208 0.987831 9.0092 1.0047 8.87836C1.02156 8.74752 1.06415 8.62131 1.13001 8.507C2.46933 5.97778 4.46277 3.85427 6.9024 2.35795C9.34202 0.861635 12.1385 0.047339 15 0C17.8616 0.0472337 20.6581 0.861485 23.0977 2.35781C25.5374 3.85414 27.5308 5.97771 28.87 8.507C28.955 8.65722 28.9997 8.82689 28.9997 8.9995C28.9997 9.17211 28.955 9.34178 28.87 9.492C27.5308 12.0214 25.5374 14.1451 23.0978 15.6416C20.6582 17.1381 17.8617 17.9526 15 18Z" fill="#505050"/>
<path d="M15 14C14.0111 14 13.0444 13.7068 12.2222 13.1574C11.3999 12.6079 10.7591 11.8271 10.3806 10.9134C10.0022 9.99979 9.90317 8.99446 10.0961 8.02455C10.289 7.05465 10.7652 6.16373 11.4645 5.46447C12.1637 4.76521 13.0547 4.289 14.0246 4.09608C14.9945 3.90315 15.9998 4.00217 16.9134 4.3806C17.8271 4.75904 18.608 5.39991 19.1574 6.22215C19.7068 7.0444 20 8.0111 20 9C19.9984 10.3256 19.4711 11.5964 18.5338 12.5338C17.5965 13.4711 16.3256 13.9984 15 14ZM15 6C14.4067 6 13.8267 6.17595 13.3333 6.50559C12.84 6.83524 12.4554 7.30377 12.2284 7.85195C12.0013 8.40013 11.9419 9.00333 12.0577 9.58527C12.1734 10.1672 12.4591 10.7018 12.8787 11.1213C13.2983 11.5409 13.8328 11.8266 14.4147 11.9424C14.9967 12.0581 15.5999 11.9987 16.1481 11.7716C16.6962 11.5446 17.1648 11.1601 17.4944 10.6667C17.8241 10.1734 18 9.59335 18 9C18 8.20435 17.6839 7.44129 17.1213 6.87868C16.5587 6.31607 15.7957 6 15 6Z" fill="#505050"/>
</svg>
