<svg width="13" height="11" viewBox="0 0 13 11" fill="none" xmlns="http://www.w3.org/2000/svg">
<path d="M8.66205 3.72597C7.55987 3.73909 6.50288 4.16599 5.70072 4.92197C5.29804 5.29819 4.98942 5.76377 4.79974 6.28117C4.61005 6.79857 4.54462 7.35332 4.60872 7.90065C4.15938 7.84465 3.75006 7.78397 3.33806 7.74931C3.1903 7.73241 3.04078 7.75761 2.90672 7.82198C2.50672 8.04731 2.12405 8.30198 1.66939 8.58598C1.75272 8.20931 1.80672 7.87932 1.90205 7.56132C1.94581 7.4693 1.95175 7.36378 1.91859 7.26743C1.88544 7.17109 1.81583 7.09159 1.72471 7.04598C1.07736 6.64533 0.578174 6.0447 0.302707 5.33498C0.0272406 4.62526 -0.00950186 3.84511 0.198052 3.11265C0.385845 2.47025 0.736017 1.88709 1.21479 1.41941C1.69355 0.951735 2.28477 0.615329 2.93139 0.442644C3.81682 0.148291 4.77097 0.130985 5.6665 0.393043C6.56202 0.655102 7.35632 1.18407 7.94338 1.90932C8.35384 2.43248 8.60351 3.06359 8.66205 3.72597ZM3.37072 3.25932C3.37085 3.12182 3.31787 2.98957 3.22284 2.89019C3.12782 2.79082 2.99809 2.73199 2.86072 2.72597C2.79296 2.72348 2.72538 2.73441 2.66185 2.75811C2.59832 2.78182 2.5401 2.81786 2.49054 2.86413C2.44098 2.91041 2.40106 2.96601 2.37306 3.02777C2.34506 3.08952 2.32954 3.1562 2.32739 3.22398C2.3248 3.29199 2.33588 3.35985 2.35999 3.4235C2.3841 3.48715 2.42074 3.54533 2.46774 3.59456C2.51473 3.6438 2.57113 3.6831 2.6336 3.71014C2.69606 3.73718 2.76332 3.7514 2.83138 3.75197C2.96799 3.75636 3.10089 3.70714 3.20167 3.61482C3.30246 3.52251 3.36313 3.39443 3.37072 3.25797V3.25932ZM6.13138 2.72597C5.99443 2.72988 5.86425 2.78635 5.7678 2.88366C5.67136 2.98097 5.61607 3.11166 5.61339 3.24863C5.61485 3.31698 5.62984 3.38436 5.6575 3.44688C5.68516 3.50939 5.72494 3.56582 5.77453 3.61287C5.82412 3.65992 5.88255 3.69667 5.94643 3.72101C6.01032 3.74534 6.07839 3.75677 6.14672 3.75464C6.21426 3.75372 6.28096 3.7395 6.34301 3.71281C6.40506 3.68611 6.46124 3.64747 6.50835 3.59906C6.55546 3.55065 6.59258 3.49341 6.61758 3.43066C6.64258 3.36791 6.65497 3.30086 6.65406 3.23331C6.65314 3.16577 6.63892 3.09908 6.61223 3.03703C6.58553 2.97498 6.54687 2.91879 6.49846 2.87168C6.45005 2.82457 6.39283 2.78745 6.33008 2.76245C6.26733 2.73745 6.20027 2.72505 6.13272 2.72597H6.13138Z" fill="#505050"/>
<path d="M11.2454 10.8933C10.9178 10.695 10.5629 10.5458 10.192 10.4507C9.82058 10.4842 9.45315 10.553 9.0947 10.656C8.55812 10.7237 8.01322 10.6718 7.49906 10.5041C6.98489 10.3364 6.5142 10.057 6.1207 9.68601C5.75203 9.37107 5.46473 8.97187 5.28319 8.52225C5.10166 8.07264 5.03125 7.58588 5.07789 7.10325C5.12454 6.62062 5.28688 6.15636 5.55116 5.74983C5.81544 5.34331 6.17386 5.00651 6.59602 4.768C7.40704 4.25436 8.37574 4.04953 9.32527 4.1909C10.2748 4.33226 11.1418 4.81038 11.768 5.538C12.2588 6.12956 12.4981 6.88993 12.4347 7.65594C12.3713 8.42196 12.0101 9.13257 11.4287 9.63533C11.074 9.95 10.9467 10.2087 11.174 10.6233C11.2084 10.7102 11.2324 10.8008 11.2454 10.8933ZM7.10135 6.88067C7.15902 6.88295 7.21657 6.87357 7.27052 6.85307C7.32447 6.83257 7.37373 6.80137 7.41534 6.76137C7.45694 6.72137 7.49005 6.67338 7.51267 6.62028C7.53528 6.56718 7.54693 6.51007 7.54693 6.45235C7.54693 6.39463 7.53528 6.3375 7.51267 6.2844C7.49005 6.2313 7.45694 6.18331 7.41534 6.14331C7.37373 6.10331 7.32447 6.07213 7.27052 6.05163C7.21657 6.03113 7.15902 6.02173 7.10135 6.024C7.04368 6.02173 6.98615 6.03113 6.9322 6.05163C6.87825 6.07213 6.82899 6.10331 6.78739 6.14331C6.74578 6.18331 6.71267 6.2313 6.69005 6.2844C6.66744 6.3375 6.65579 6.39463 6.65579 6.45235C6.65579 6.51007 6.66744 6.56718 6.69005 6.62028C6.71267 6.67338 6.74578 6.72137 6.78739 6.76137C6.82899 6.80137 6.87825 6.83257 6.9322 6.85307C6.98615 6.87357 7.04368 6.88295 7.10135 6.88067ZM9.7727 6.02468C9.66275 6.02543 9.55728 6.0684 9.47812 6.14471C9.39896 6.22102 9.35215 6.32482 9.34736 6.43467C9.34485 6.51865 9.36741 6.60147 9.41218 6.67256C9.45695 6.74366 9.52189 6.79978 9.59871 6.8338C9.67552 6.86781 9.76073 6.87818 9.84346 6.86354C9.92618 6.84891 10.0027 6.80995 10.0632 6.75165C10.1236 6.69334 10.1654 6.61833 10.1831 6.53619C10.2007 6.45406 10.1935 6.36852 10.1623 6.2905C10.1312 6.21249 10.0774 6.14553 10.008 6.09818C9.93865 6.05084 9.85671 6.02524 9.7727 6.02468Z" fill="#505050"/>
</svg>
